<svg width="125" height="72" viewBox="0 0 125 72" fill="none" xmlns="http://www.w3.org/2000/svg">
<path d="M19.0505 18.6L19.0731 18.6059L19.1469 18.6285L19.1882 18.6403L19.2974 18.6748L19.3554 18.6925L19.498 18.7377L19.5728 18.7613L19.7459 18.8164L19.8364 18.8459L20.038 18.9108L20.1423 18.9443L20.3725 19.018L20.4905 19.0564L20.7452 19.139L21.0049 19.2236L21.5941 19.4164L21.898 19.5157L22.562 19.7331L22.9013 19.8453L23.6252 20.0833L24.7603 20.459L25.1479 20.5879L25.8984 20.8348L26.2682 20.9557L26.9705 21.1849L27.3148 21.2961L27.9531 21.5016L28.2629 21.602L28.8207 21.779L28.9544 21.8213L29.2043 21.9L29.3262 21.9384L29.5505 22.0072L29.6587 22.0416L29.8554 22.1017L29.9498 22.1302L30.1161 22.1803L30.1957 22.2039L30.3315 22.2433L30.3944 22.262L30.4957 22.2895L30.542 22.3023L30.6079 22.318L30.6639 22.3279H30.6728L30.721 22.318L30.7485 22.3121L30.8331 22.2895L30.8793 22.2777L30.9993 22.2433L31.0623 22.2256L31.2148 22.1803L31.2944 22.1567L31.4774 22.1017L31.5728 22.0721L31.7843 22.0072L31.8944 21.9738L32.1325 21.9L32.2554 21.8617L32.518 21.779L32.7875 21.6944L33.3915 21.5016L33.7033 21.4023L34.38 21.1849L34.7262 21.0728L35.459 20.8348L36.6049 20.459L36.9954 20.3302L37.7469 20.0833L38.1157 19.9623L38.8141 19.7331L39.1544 19.622L39.7839 19.4164L40.0879 19.3161L40.6318 19.139L40.7616 19.0967L41.0036 19.018L41.1207 18.9797L41.3361 18.9108L41.4393 18.8764L41.6262 18.8164L41.7148 18.7879L41.8711 18.7377L41.9449 18.7141L42.0679 18.6748L42.1259 18.6561L42.2144 18.6285L42.2548 18.6157L42.3069 18.6L42.3423 18.5902H42.3443L42.3482 18.6571L42.3511 18.7013L42.3551 18.8528L42.357 18.9384L42.36 19.1705L42.362 19.2964L42.3659 19.6053L42.3679 19.7685L42.3708 20.1482L42.3728 20.3469L42.3757 20.7944L42.3777 21.0256L42.3807 21.5361L42.3816 21.7987L42.3846 22.3682L42.3856 22.6594L42.3885 23.282L42.3895 23.6007L42.3915 24.2735L42.3925 24.6157L42.3944 25.3338L42.3954 25.6977L42.3964 26.4571L42.3974 26.8417L42.3984 27.6374V28.0397L42.3993 28.8679V31.4508L42.3964 44.3115L37.1036 54.4426L36.9207 54.7928L36.5725 55.4587L36.4013 55.7862L36.0767 56.4089L35.9174 56.7138L35.6144 57.2931L35.4669 57.5774L35.1856 58.1144L35.0479 58.379L34.7872 58.8767L34.6593 59.1207L34.4184 59.58L34.2993 59.8053L34.077 60.2282L33.9679 60.4358L33.7633 60.8233L33.663 61.0131L33.4751 61.3662L33.3826 61.5394L33.2105 61.861L33.1259 62.0184L32.9685 62.3095L32.8908 62.4512L32.7472 62.7138L32.6774 62.8407L32.5466 63.0758L32.4826 63.1898L32.3636 63.3974L32.2485 63.6L32.0489 63.9325L31.9534 64.0879L31.7902 64.3358L31.7125 64.4498L31.5767 64.6259L31.5128 64.7056L31.3987 64.8217L31.3436 64.8728L31.2443 64.9407L31.1951 64.9692L31.1007 65.0007L31.0544 65.0135L30.959 65.0213L30.6334 65.0164H30.5184L30.3452 65.0056L30.2656 64.9977L30.1377 64.9613L30.0767 64.9387L29.9607 64.8639L29.9016 64.8217L29.7639 64.6967L29.7482 64.682L29.7029 64.623L29.6774 64.5876L29.6105 64.4862L29.5741 64.4302L29.4866 64.2856L29.4393 64.2069L29.3282 64.0161L29.2692 63.9148L29.1344 63.6748L29.0636 63.5489L28.9033 63.2587L28.8197 63.1072L28.6338 62.7649L28.5364 62.5869L28.3229 62.1895L28.2118 61.9839L27.9688 61.5295L27.8439 61.2944L27.5715 60.782L27.4318 60.5174L27.1279 59.943L26.9725 59.6479L26.6361 59.0095L26.4649 58.683L26.0961 57.9787L25.9072 57.6187L25.5039 56.8476L25.2974 56.4531L24.8587 55.6121L24.1584 54.2695L18.8941 44.163L18.8961 31.3761V30.7849V29.6735L18.897 29.1295L18.898 28.1105V27.6128L18.9 26.6833L18.901 26.2298L18.9029 25.3879L18.9039 24.9767L18.9059 24.2184L18.9079 23.8505L18.9108 23.1738L18.9128 22.8453L18.9157 22.2472L18.9177 21.958L18.9226 21.4357L18.9246 21.1839L18.9295 20.7354L18.9325 20.52L18.9374 20.1413L18.9403 19.9603L18.9472 19.6505L18.9502 19.503L18.957 19.258L18.961 19.143L18.9688 18.959L18.9728 18.8754L18.9807 18.7515L18.9856 18.6964L18.9944 18.6295L19.0092 18.5902H19.0131M28.081 43.4321L27.9256 43.5915L27.6197 43.8374L27.4652 43.9485L27.1407 44.1059L26.9734 44.1748L26.6046 44.2544L25.977 44.2987L25.8285 44.2977L25.5905 44.2859L25.4784 44.2771L25.2885 44.2456L25.1961 44.2259L25.0229 44.1679L24.7475 44.043L24.6177 43.9761L24.3816 43.8325L24.2685 43.7597L24.0679 43.6053L23.9725 43.5266L23.8131 43.3662L23.6292 43.1253L23.5997 43.078L23.5593 43.02L23.5416 42.9964L23.5111 42.9846L23.4964 42.9856L23.4629 43.022L23.3921 43.1312L23.3213 43.2472L23.1275 43.4754L23.0252 43.5866L22.7862 43.7902L22.6643 43.8866L22.4056 44.0449L22.0249 44.2092L21.8616 44.2574L21.6 44.3164L21.4751 44.34L21.2508 44.3469L21.1387 44.3439L20.9007 44.2977L20.4698 44.1679L20.3961 44.1423L20.2584 44.0971L20.1934 44.0754L20.0833 44.042L20.0321 44.0262L19.9613 44.0076L19.9111 44.0007H19.9102L19.9328 44.0479L19.9475 44.0784L19.9987 44.1817L20.0282 44.2407L20.1079 44.3961L20.1511 44.4807L20.2564 44.6862L20.3125 44.7944L20.4413 45.0453L20.5092 45.1761L20.6597 45.4682L20.7374 45.6187L20.9085 45.9492L20.9961 46.1184L21.1849 46.4813L21.2803 46.6672L21.4849 47.0607L21.5892 47.2613L21.8075 47.6813L22.0288 48.1062L22.5039 49.021L22.7459 49.4853L23.2505 50.4551L23.5052 50.9439L24.0246 51.9384L24.2833 52.4351L24.7997 53.4236L25.0564 53.9144L25.5541 54.8676L25.8 55.3367L26.2633 56.223L26.3764 56.4394L26.5938 56.8535L26.701 57.0571L26.9036 57.4446L27.0039 57.6344L27.1908 57.9905L27.2823 58.1646L27.4515 58.4862L27.5331 58.6417L27.6826 58.9249L27.7544 59.0617L27.8823 59.3026L27.9423 59.4167L28.0466 59.6115L28.0948 59.703L28.1725 59.8476L28.2079 59.9135L28.257 60.0039L28.2974 60.0758L28.3338 60.1308L28.4174 60.2036L28.4459 60.2194L28.5285 60.243L28.5757 60.2528L28.7105 60.2676L28.7872 60.2735L28.9928 60.2803L29.1069 60.2833L29.4029 60.2843H29.4826L29.6646 60.2833L29.758 60.2823L29.9685 60.2803L30.0767 60.2794L30.3187 60.2764L30.718 60.2725L32.9931 60.2459L37.2157 52.1489L37.5069 51.5921L38.0636 50.521L38.337 49.9948L38.8515 49.0013L38.9774 48.7584L39.2184 48.2921L39.3374 48.062L39.5646 47.6213L39.6757 47.4049L39.8872 46.9948L39.9905 46.7941L40.1843 46.4164L40.2787 46.2315L40.4538 45.8892L40.5384 45.722L40.6928 45.418L40.7675 45.2705L40.9013 45.0069L40.9652 44.881L41.0754 44.6607L41.1275 44.5564L41.2131 44.3823L41.2534 44.3017L41.3134 44.1777L41.34 44.1217L41.3725 44.0499L41.3892 44.0026L41.3823 43.9958L41.3439 43.9967L41.3213 43.9997L41.2574 44.0194L41.0105 44.1295L40.9515 44.161L40.8108 44.2112L40.737 44.2348L40.5728 44.2682L40.4026 44.2977L40.0269 44.3066L39.838 44.3026L39.4711 44.2456L39.3826 44.2279L39.2193 44.1787L39.001 44.0882L38.9036 44.038L38.6872 43.8826L38.578 43.799L38.3685 43.6053L38.2672 43.5079L38.103 43.3141L38.0666 43.2679L38.0095 43.1813L37.9515 43.0672L37.9436 43.0446L37.9082 43.0348L37.8866 43.0358L37.8256 43.0712L37.7911 43.0938L37.7046 43.1744L37.5443 43.3466L37.4056 43.5049L37.0889 43.7636L36.9246 43.8836L36.5666 44.0636L36.3836 44.1443L35.998 44.2476L35.8033 44.2889L35.4069 44.3135L35.2082 44.3154L34.8128 44.2613L34.617 44.2239L34.2393 44.0912L34.0544 44.0154L33.7072 43.8039L33.239 43.3967L33.1761 43.3279L33.0649 43.2197L33.0118 43.1705L32.9252 43.1026L32.8859 43.0751L32.8298 43.0525L32.7836 43.0731L32.7728 43.1056L32.7295 43.1833L32.7049 43.2246L32.638 43.3141L32.5672 43.4056L32.3744 43.6043L32.2741 43.7017L32.0548 43.8836L31.74 44.0912L31.618 44.1551L31.3534 44.2417L31.2177 44.279L30.9354 44.3125L30.7928 44.3233L30.5036 44.3085L30.359 44.2948L30.0738 44.2318L29.9331 44.1954L29.6636 44.0892L29.5318 44.0312L29.2898 43.8846L29.1728 43.8059L28.9682 43.621L28.7164 43.3043L28.5177 42.9826M122.764 57.4426H47.4197V50.1639H122.764M105.452 52.5246V53.2456L105.445 53.4089L105.441 53.4876L105.425 53.6223L105.416 53.6853L105.394 53.7777L105.358 53.8505L105.332 53.8662L105.286 53.9194L105.265 53.9498L105.227 54.0266L105.192 54.1092L105.151 54.3177L105.136 54.4249L105.139 54.6462L105.203 54.9403L105.243 55.0358L105.341 55.1853L105.394 55.2531L105.525 55.3515L105.595 55.3948L105.766 55.4459L106.077 55.4754H106.132L106.241 55.4548L106.294 55.442L106.398 55.3977L106.498 55.3476L106.669 55.1892L106.748 55.1017L106.857 54.8882L106.928 54.5331V54.4407L106.951 54.3118L106.966 54.2577L107.014 54.2105L107.041 54.1967L107.108 54.2341L107.219 54.3866L107.26 54.4623L107.303 54.6512L107.318 54.7485L107.313 54.9561L107.306 55.0594L107.256 55.2521L107.133 55.4892L107.094 55.5384L107.01 55.6092L106.964 55.6417L106.847 55.6879L106.781 55.7076L106.599 55.7361L106.549 55.743L106.43 55.7548L106.224 55.7705L106.135 55.7764L105.99 55.7872L105.922 55.7931L105.811 55.8049L105.758 55.8108L105.676 55.8266L105.637 55.8354L105.575 55.858L105.519 55.8826L105.443 55.9643L105.333 56.1561L105.288 56.2485L105.23 56.4177L105.219 56.4551L105.211 56.5151L105.216 56.5741L105.24 56.6115L105.324 56.6469L105.369 56.6597L105.476 56.6489L105.529 56.638L105.63 56.5869L105.677 56.5564L105.742 56.4708L105.76 56.4344L105.818 56.3794L105.852 56.3538L105.949 56.3164L106.004 56.2987L106.156 56.2741L106.461 56.2466L106.589 56.2377L106.815 56.2033L106.924 56.1836L107.112 56.1236L107.202 56.0902L107.354 56.0036L107.426 55.9574L107.542 55.8423L107.596 55.7813L107.677 55.6367L107.715 55.561L107.763 55.3859L107.784 55.2935L107.801 55.0859L107.792 54.7367L107.781 54.5902L107.713 54.3295L107.672 54.2046L107.559 54.002L107.497 53.9095L107.351 53.7836L107.312 53.758L107.232 53.7256L107.108 53.7049H107.072L107.02 53.6892L106.997 53.6774L106.965 53.6331L106.951 53.6066L106.937 53.5279L106.928 53.3607V53.2849L106.936 53.1797L106.943 53.1335L106.97 53.0754L106.987 53.0508L107.045 53.0282L107.174 53.0164H107.223L107.295 53.0056L107.327 52.9977L107.37 52.9672L107.389 52.9485L107.409 52.8915L107.42 52.7705V52.5246M113.582 52.5344L113.325 52.621L113.257 52.6574L113.148 52.7951L113.098 52.8758L113.024 53.1059L113.008 53.1698L112.982 53.3154L112.969 53.3912L112.951 53.5613L112.944 53.6498L112.934 53.8456L112.928 54.1692V54.9964L112.387 54.9344L112.332 52.5246H111.846V54.1003L111.847 54.3512L111.848 54.4712L111.852 54.6728L111.854 54.7682L111.861 54.9256L111.865 54.9994L111.874 55.1174L111.879 55.1725L111.893 55.2571L111.9 55.2954L111.919 55.3525L111.991 55.439L112.023 55.4508L112.063 55.4725L112.079 55.4843L112.087 55.5098V55.5236L112.063 55.561L111.991 55.6397L111.939 55.6908L111.877 55.801L111.853 55.8571L111.839 55.9712L111.838 56.0282L111.87 56.1413L111.89 56.1964L111.96 56.3017L111.999 56.3518L112.105 56.4423L112.161 56.4846L112.295 56.5544L112.365 56.5859L112.525 56.6292L112.785 56.6558H112.872L113.007 56.6439L113.07 56.6351L113.173 56.5997L113.222 56.578L113.311 56.5092L113.357 56.4698L113.454 56.3607L113.534 56.2653L113.705 56.1413L113.961 56.0656H114.014L114.09 56.0567L114.123 56.0499L114.164 56.0233L114.181 56.0066L114.194 55.9554L114.189 55.8443L114.183 55.803L114.156 55.7361L114.141 55.7056L114.09 55.6584L114.06 55.6358L113.977 55.6023L113.813 55.562L113.761 55.5531L113.687 55.5364L113.656 55.5285L113.623 55.5148L113.612 55.5079L113.623 55.498L113.688 55.4882L113.719 55.4862L113.799 55.4607L113.842 55.4449L113.938 55.3948L114.229 55.1882L114.31 55.1174L114.415 55.0082L114.46 54.9531L114.51 54.8194L114.52 54.781L114.533 54.6876L114.539 54.6364L114.546 54.5105L114.548 54.4426L114.55 54.2744L114.551 53.9666V53.8603L114.55 53.6803L114.549 53.5948L114.544 53.4531L114.542 53.3872L114.533 53.2771L114.528 53.2249L114.513 53.1394L114.497 53.0587L114.442 52.9417L114.313 52.7784L114.25 52.7115L114.098 52.6161L114.02 52.5758L113.848 52.5335L113.76 52.5197M79.2934 52.4262L79.2285 52.4636L79.1508 52.5826L79.143 52.6043V52.6633L79.1459 52.6948L79.1666 52.7666L79.2885 52.9889L79.3269 53.038L79.3839 53.1423L79.4095 53.1974L79.4449 53.3292L79.4597 53.4L79.4764 53.578L79.4853 53.9213V54.1013L79.4646 54.3905L79.4498 54.5243L79.4007 54.722L79.3721 54.8095L79.2934 54.9187L79.141 54.9836H79.083L78.9895 54.9197L78.9472 54.8764L78.8823 54.7269L78.8538 54.6413L78.8184 54.4053L78.7967 53.9528V53.759L78.7633 53.4433L78.7416 53.2967L78.66 53.0636L78.6128 52.9564L78.4771 52.7961L78.2095 52.624L78.1259 52.5895L77.9203 52.5561L77.8151 52.5453L77.5938 52.5571L77.4846 52.5679L77.2849 52.62L77.0518 52.741L76.982 52.799L76.8679 52.98L76.8157 53.0794L76.7371 53.3233L76.7016 53.4502L76.6584 53.7315L76.6407 53.8751L76.6318 54.1682L76.6308 54.3128L76.6574 54.5921L76.6741 54.7269L76.7351 54.9659L76.7705 55.0771L76.8659 55.2502L76.8915 55.2885L76.9505 55.3476L77.0489 55.4076L77.0705 55.4154L77.0911 55.438L77.098 55.4508L77.0892 55.4833L77.0813 55.501L77.043 55.5433L76.9525 55.618L76.9053 55.6525L76.8364 55.7312L76.8049 55.7725L76.7666 55.86L76.7508 55.9043L76.741 55.9967L76.74 56.044L76.7587 56.1364L76.7715 56.1826L76.8177 56.2712L76.8443 56.3144L76.9161 56.3951L76.9554 56.4344L77.0518 56.5023L77.223 56.5859L77.2593 56.5997L77.3548 56.6194L77.4049 56.6282L77.521 56.64L77.642 56.6489L77.9135 56.643L78.0482 56.6361L78.299 56.6007L78.358 56.5899L78.4594 56.5643L78.5066 56.5505L78.5803 56.518L78.6541 56.4807L78.8233 56.3607L79.0338 56.1738L79.0731 56.1295L79.1577 56.0676L79.2039 56.039L79.3259 56.0046L79.3948 55.9898L79.5875 55.9751L79.6426 55.9721L79.7695 55.9692L79.9948 55.9672H80.7689L80.7413 54.2705L80.7148 52.5738H80.2525L80.281 55.4754L79.859 55.4676L79.801 55.4666L79.7046 55.4607L79.6603 55.4567L79.5974 55.4479L79.5698 55.442L79.5462 55.4302L79.561 55.4095L79.6052 55.3918L79.6879 55.3161L79.7272 55.2728L79.798 55.1528L79.8325 55.0879L79.8905 54.9315L79.918 54.8489L79.9613 54.6649L80.0007 54.4761L80.0282 54.0512L79.978 53.4148L79.9603 53.3223L79.9092 53.1482L79.8807 53.0646L79.8128 52.9112L79.7774 52.8384L79.6987 52.7115L79.6584 52.6525L79.5738 52.559L79.5325 52.5167L79.4489 52.4607L79.4075 52.438L79.3308 52.4262M78.062 55.9741L78.1328 55.978L78.239 55.9938L78.2852 56.0017L78.3384 56.0243L78.3541 56.0656L78.3462 56.0794L78.2921 56.104L78.2607 56.1158L78.1702 56.1354L77.8131 56.1639H77.6813L77.4561 56.1354L77.4069 56.1266L77.3341 56.104L77.3016 56.0921L77.2721 56.0656L77.2623 56.0499L77.2879 56.0243L77.3075 56.0125L77.3872 55.9938L77.4334 55.9849L77.5643 55.9741L77.8131 55.9672H77.9075M112.771 55.4833L112.88 55.5453L113.021 55.7115L113.056 55.7774L113.091 55.9102L113.081 56.0558L113.061 56.0892L112.951 56.1325L112.888 56.1492L112.735 56.161L112.659 56.163L112.521 56.1423L112.459 56.1276L112.391 56.0725L112.375 56.0469L112.38 55.9898L112.434 55.919L112.462 55.9023L112.505 55.8197L112.534 55.6662V55.5984L112.589 55.5177L112.622 55.4862L112.72 55.4784M88.7469 51.2459L88.4135 51.2892L88.3357 51.302L88.2 51.3354L88.0426 51.3935L87.958 51.4377L87.7849 51.5784L87.6984 51.6561L87.5371 51.8479L87.4584 51.9482L87.3246 52.1705L87.1712 52.5148L87.1535 52.5659L87.1259 52.6898L87.1121 52.7548L87.0925 52.9003L87.0748 53.0508L87.063 53.3843L87.061 53.5525L87.0836 53.8761L87.1544 54.2853L87.1751 54.3571L87.1957 54.4692L87.2026 54.5213L87.1908 54.6099L87.18 54.6541L87.1308 54.7446L87.0069 54.9069L86.939 54.9876L86.8485 55.1194L86.8111 55.1823L86.7787 55.2974L86.7689 55.3564L86.7905 55.4823L86.8761 55.7135L86.9135 55.7951L87.0295 55.922L87.0944 55.979L87.2666 56.0567L87.359 56.0892L87.5872 56.1177L87.9934 56.1059L88.1292 56.0921L88.4135 56.0744L88.4803 56.0715L88.5964 56.0695H88.6515L88.7312 56.0735L88.8433 56.0823L89.043 56.0961L89.1394 56.101L89.3115 56.1069L89.4777 56.1099L89.7374 56.0931L89.8584 56.0803L90.0452 56.0282L90.2735 55.9082L90.3335 55.8639L90.4259 55.7538L90.4682 55.6967L90.5262 55.5679L90.5508 55.503L90.5754 55.3643L90.5833 55.2944L90.5744 55.1558L90.5656 55.0859L90.5253 54.9551L90.5007 54.8912L90.4298 54.7771L90.3905 54.723L90.2892 54.6344L90.1062 54.54L90.061 54.5262L90.001 54.4928L89.9754 54.4731L89.9479 54.4151L89.938 54.3807V54.2794L89.9646 54.059L89.9902 53.8869L89.9794 53.5643L89.9646 53.4069L89.883 53.1207L89.8348 52.983L89.6971 52.7459L89.6223 52.6348L89.4413 52.4587L89.3459 52.378L89.1364 52.2738L89.0282 52.2315L88.803 52.2108L88.6889 52.2118L88.4616 52.2856L88.4056 52.3112L88.2944 52.381L88.1331 52.5167L88.0731 52.5777L87.9866 52.683L87.9482 52.7351L87.899 52.8433L87.8784 52.9003L87.8567 53.0371L87.8459 53.3036V53.4472L87.8882 53.6843L87.9167 53.7944L88.0121 53.9646L88.0672 54.0403L88.2138 54.1377L88.4862 54.1967H88.5423L88.6485 54.1603L88.7007 54.1377L88.7951 54.062L88.8403 54.0207L88.919 53.9144L88.9564 53.8584L89.0174 53.7305L89.0449 53.6646L89.0823 53.5249L89.0971 53.4541L89.1079 53.3105L89.1098 53.2397L89.0902 53.102L89.0223 52.9112L88.9889 52.8482L88.9712 52.7695L89.0203 52.7213H89.0439L89.0921 52.7479L89.1167 52.7646L89.1639 52.8217L89.2102 52.8846L89.2918 53.0813L89.3302 53.1885L89.3843 53.4433L89.4197 53.8476V54.3935H88.4685L88.2512 54.3856L88.1479 54.3807L87.9748 54.3639L87.8961 54.3541L87.782 54.3305L87.6944 54.2882L87.6856 54.2744L87.6649 54.2017L87.6541 54.1594L87.6325 54.0433L87.5764 53.6007L87.5636 53.4571L87.5656 53.1905L87.5725 53.0607L87.6118 52.8236L87.6354 52.7095L87.7112 52.5059L87.7525 52.4076L87.8616 52.2384L87.9197 52.1577L88.0603 52.0239L88.1351 51.962L88.3072 51.8676L88.3967 51.8253L88.5974 51.7712L88.9308 51.7377H89.0371L89.2249 51.7613L89.3154 51.7771L89.4728 51.8341L89.5475 51.8676L89.6774 51.963L89.7384 52.0151L89.8416 52.1508L89.8898 52.2236L89.9695 52.4036L90.0059 52.499L90.063 52.7253L90.0885 52.8453L90.1269 53.1217L90.1623 53.5977L90.1672 53.6921L90.1751 53.8515L90.18 53.9262L90.1898 54.0502L90.1948 54.1082L90.2066 54.2007L90.2125 54.243L90.2272 54.3089L90.2439 54.3699L90.2931 54.4318L90.4003 54.4741L90.4466 54.481L90.5095 54.4731L90.5371 54.4623L90.5705 54.3964L90.5853 54.3531L90.599 54.1987L90.602 54.1525L90.6059 54.0403L90.6108 53.8348L90.6128 53.703L90.6148 53.4787V53.3715L90.6128 53.1905L90.6108 53.104L90.603 52.9574L90.598 52.8866L90.5833 52.7646L90.5675 52.6476L90.5085 52.4479L90.3728 52.1312L90.2971 51.9757L90.118 51.7298L90.0236 51.6177L89.7993 51.4544L89.6813 51.3826L89.402 51.2971L88.9082 51.2459M89.8662 55.021L89.9538 55.0761L90.0108 55.1233L90.0748 55.2187L90.0984 55.2659L90.0974 55.3564L90.0885 55.4007L90.0236 55.4784L89.8554 55.5758L89.7807 55.6053L89.6449 55.6426L89.581 55.6574L89.4757 55.6682L89.4276 55.6702L89.3636 55.6544L89.3371 55.6426L89.3252 55.5984V55.5885L89.3449 55.5472L89.3567 55.5236L89.3961 55.4617L89.5643 55.2364L89.6144 55.1754L89.6912 55.0928L89.7266 55.0574L89.7846 55.0239L89.8131 55.0121M87.482 55.2335L87.5321 55.2531L87.6433 55.3269L87.6974 55.3672L87.7849 55.4607L87.8459 55.5885V55.6141L87.8292 55.6456L87.8164 55.6574L87.7692 55.6613L87.7416 55.6603L87.6561 55.6367L87.6079 55.622L87.4771 55.5708L87.418 55.5472L87.3344 55.4912L87.3 55.4626L87.2666 55.4017L87.2557 55.3712L87.2734 55.3102L87.36 55.2256L87.3876 55.2089M92.0705 52.56L92.0036 52.5728L91.8817 52.623L91.682 52.741L91.5718 52.8148L91.3879 52.9987L91.3033 53.0961L91.1725 53.3213L91.1134 53.4394L91.0387 53.701L90.9934 54.1259V54.2479L91.0161 54.4721L91.0298 54.5803L91.079 54.7741L91.1075 54.8676L91.1813 55.0279L91.2207 55.1036L91.3171 55.2285L91.3672 55.2866L91.4823 55.3721L91.5423 55.4105L91.6741 55.4538L91.742 55.4705L91.8876 55.4695L91.9623 55.4636L92.1207 55.4144L92.1423 55.4056L92.1935 55.3682L92.22 55.3456L92.2771 55.2866L92.4285 55.0643L92.579 54.7751L92.7974 55.1007L92.8446 55.1705L92.939 55.2797L92.9872 55.3299L93.0816 55.3997L93.1279 55.4302L93.2203 55.4646L93.2666 55.4774H93.3551L93.3994 55.4735L93.483 55.4439L93.5243 55.4253L93.602 55.3672L93.6777 55.3033L93.8026 55.1036L93.8597 54.9944L93.9403 54.72L93.9738 54.5764L93.9974 54.2508L94.0013 54.0836L93.9561 53.7285L93.7977 53.1885L93.7849 53.1571L93.78 53.1069V53.0843L93.7987 53.0508L93.8223 53.0223L93.9197 53.0135L93.9738 53.0174L94.1046 53.0715L94.2964 53.222L94.3318 53.2603L94.3879 53.3666L94.4135 53.4236L94.4518 53.5574L94.4843 53.6961L94.4961 54.0157L94.4921 54.1751L94.4321 54.4741L94.4125 54.544L94.3603 54.6659L94.262 54.8115L94.2059 54.8725L94.1223 55.0171L94.0869 55.0908L94.0505 55.2344L94.0387 55.3023L94.0554 55.4056L94.0633 55.4272L94.0898 55.4567L94.1479 55.4754H94.201L94.3082 55.442L94.3613 55.4213L94.4646 55.3495L94.5157 55.3092L94.6121 55.2049L94.6594 55.1489L94.7449 55.018L94.8275 54.8803L94.9456 54.5518L95.0243 54.0217V53.9066L95.0016 53.6912L94.9859 53.5869L94.9318 53.3931L94.9013 53.2997L94.8207 53.1315L94.7774 53.0508L94.6731 52.9121L94.618 52.8472L94.4921 52.74L94.4262 52.6918L94.2826 52.622L94.2089 52.5915L94.0495 52.561L93.7977 52.5639L93.6846 52.5807L93.5302 52.6003L93.4594 52.6082L93.3266 52.6121H93.2557L93.0639 52.5994L93.0079 52.5944L92.8702 52.5836L92.6164 52.561L92.4895 52.5502L92.2987 52.5433L92.2102 52.5423M55.2108 52.3889L55.1892 52.3958L55.1508 52.4331L55.0898 52.5285L55.0682 52.5679L55.0466 52.6377L55.0387 52.6712L55.0456 52.738L55.0525 52.7725L55.0908 52.8482L55.1852 52.983L55.2246 53.0341L55.2836 53.1394L55.3102 53.1954L55.3456 53.3262L55.3613 53.3971L55.378 53.5761L55.3869 53.9213V54.0994L55.3662 54.3876L55.3525 54.5203L55.3033 54.719L55.2757 54.8076L55.198 54.9177L55.0515 54.9836H55.0269L54.9797 54.962L54.9561 54.9482L54.9138 54.9L54.8715 54.8469L54.8036 54.6728L54.7721 54.5764L54.7318 54.3354L54.7102 53.9203L54.7121 53.7561L54.6836 53.4728L54.6639 53.338L54.5902 53.1158L54.5469 53.0115L54.4279 52.8482L54.1977 52.6672L54.0846 52.6092L53.8652 52.5443L53.758 52.5207L53.5544 52.5216L53.4561 52.5305L53.2721 52.5944L53.1836 52.6328L53.0252 52.7548L52.9505 52.8226L52.8216 52.9977L52.7607 53.0912L52.6662 53.3154L52.6239 53.4335L52.5689 53.7039L52.5344 54.1544V54.298L52.5669 54.5558L52.5885 54.6797L52.6584 54.8951L52.6977 54.9964L52.798 55.1636L52.8511 55.2403L52.9751 55.3535L53.039 55.4036L53.1797 55.4577L53.2505 55.4774L53.401 55.4676L53.4767 55.4548L53.6292 55.3751L53.7049 55.3269L53.8534 55.1725L53.9164 55.0977L54.0069 54.9285L54.0472 54.842L54.0915 54.659L54.1092 54.5666L54.1121 54.3817L54.1082 54.2902L54.0728 54.1151L54.0502 54.0295L53.9784 53.8761L53.938 53.8033L53.8338 53.6833L53.7777 53.6292L53.643 53.5554L53.4128 53.5082H53.3331L53.2092 53.4885L53.1826 53.4826L53.1472 53.4679L53.1246 53.4423V53.402L53.1816 53.3085L53.217 53.2613L53.3233 53.1698L53.3784 53.1266L53.5023 53.0607L53.6754 53.0164H53.757L53.8957 53.0813L53.9616 53.1236L54.0639 53.2672L54.1092 53.3479L54.1702 53.5603L54.2075 53.9479V54.0738L54.2213 54.303L54.2311 54.4131L54.2646 54.6108L54.2843 54.7062L54.3364 54.8735L54.3649 54.9531L54.4348 55.0889L54.4731 55.1528L54.5616 55.2571L54.6089 55.3053L54.7161 55.378L54.7721 55.4105L54.8971 55.4508L55.1046 55.4754H55.1479L55.2374 55.4528L55.2826 55.439L55.3721 55.3908L55.4607 55.3377L55.622 55.1744L55.6967 55.0859L55.8089 54.8794L55.8885 54.5577L55.8934 54.3895L55.8964 54.0905V53.9479L55.8875 53.6961L55.8816 53.5761L55.859 53.3676L55.8472 53.2682L55.8118 53.0961L55.7921 53.0144L55.741 52.8758L55.7134 52.8099L55.6466 52.6987L55.6112 52.6456L55.5266 52.5571L55.378 52.4439L55.3407 52.4203L55.2816 52.3938L55.2551 52.3849M77.8446 53.0302L77.9449 53.0784L78.1082 53.2131L78.1456 53.2505L78.2026 53.3351L78.2282 53.3794L78.2636 53.4885L78.2784 53.5466L78.2961 53.6941L78.3059 53.9754V54.1515L78.3325 54.4721L78.3502 54.6256L78.4092 54.8882L78.4416 55.0112L78.5262 55.198L78.6777 55.3712L78.7092 55.3899L78.7279 55.4174L78.7289 55.4302L78.6826 55.4489L78.6512 55.4567L78.5341 55.4656L78.2715 55.4725L77.6971 55.4754L77.9518 55.1725L78.0403 55.0672L78.1456 54.8518L78.2066 54.4918V54.3748L78.1397 54.1407L78.0974 54.0266L77.9666 53.8249L77.8948 53.7315L77.7266 53.5958L77.6833 53.5682L77.5938 53.5308L77.46 53.5082H77.3862L77.2918 53.4836L77.2544 53.4669L77.2328 53.4138L77.2308 53.3843L77.282 53.3066L77.4413 53.1698L77.5141 53.1187L77.6341 53.0577L77.6921 53.0341L77.7944 53.0262M58.7066 52.5561L58.3072 52.56L58.1607 52.562L57.9177 52.5659L57.8026 52.5679L57.6148 52.5738L57.5272 52.5767L57.3856 52.5866L57.3197 52.5915L57.2144 52.6072L57.1161 52.624L56.9862 52.683L56.8121 52.8197L56.7118 52.9121L56.5593 53.099L56.4905 53.1935L56.3931 53.3951L56.3498 53.5003L56.3007 53.7364L56.2721 54.1476V54.2833L56.3016 54.5302L56.3203 54.6492L56.3833 54.8587L56.4187 54.958L56.5102 55.1243L56.5593 55.202L56.6734 55.321L56.7334 55.3741L56.8643 55.44L56.9321 55.4666L57.0748 55.4754L57.1475 55.4725L57.2961 55.4184L57.3708 55.383L57.5203 55.262L57.5823 55.203L57.6807 55.0721L57.7013 55.0407L57.7298 54.9846L57.7475 54.9177V54.8813L57.7761 54.8253L57.8459 54.7869H57.8725L57.9157 54.8302L57.9443 54.9344V54.9905L58.0052 55.1135L58.0436 55.1754L58.1587 55.2895L58.2207 55.3426L58.3613 55.4223L58.5689 55.4754H58.6485L58.7911 55.4203L58.859 55.3849L58.9751 55.2669L59.0302 55.201L59.1177 55.0308L59.1571 54.9403L59.2131 54.7289L59.2377 54.6187L59.2603 54.3767L59.2672 54.2528L59.2534 53.9902L59.2426 53.8574L59.1905 53.5859L59.0685 53.1807L59.0557 53.1492L59.0538 53.099L59.0557 53.0764L59.0784 53.0449L59.1059 53.0174L59.2092 53.0144L59.2652 53.0203L59.3931 53.0794L59.5613 53.2348L59.5908 53.2761L59.6361 53.3843L59.6567 53.4423L59.6872 53.5761L59.7128 53.7148L59.7187 54.0295L59.7148 54.1869L59.6616 54.48L59.6449 54.5489L59.6007 54.6689L59.518 54.8135L59.4738 54.8695L59.4089 54.9787L59.3803 55.0318L59.3439 55.1312L59.3292 55.1784L59.3203 55.263L59.3193 55.3023L59.3361 55.3672L59.3469 55.3967L59.3862 55.4361L59.4089 55.4518L59.4698 55.4607H59.5023L59.583 55.4341L59.7226 55.3495L59.7993 55.2895L59.9312 55.138L59.9931 55.0564L60.0925 54.8666L60.1377 54.7682L60.2016 54.5469L60.2538 54.1889L60.2636 54.0207L60.2528 53.7325L60.242 53.5958L60.1849 53.3626L60.1505 53.2515L60.0443 53.0597L59.8259 52.8059L59.7561 52.743L59.64 52.6594L59.578 52.623L59.4128 52.5826L59.3636 52.5748L59.2426 52.5649L59.1767 52.561L59.0125 52.5571L58.9239 52.5561M96.4328 52.5246L96.2597 52.5531L96.1761 52.5728L96.0226 52.6377L95.9489 52.6751L95.8171 52.7764L95.7541 52.8305L95.6439 52.9653L95.5918 53.0361L95.5062 53.2023L95.4669 53.2889L95.4059 53.4846L95.3784 53.5859L95.343 53.8092L95.3223 54.1751L95.3213 54.3099L95.3538 54.5548L95.3754 54.6728L95.4453 54.8803L95.4836 54.9787L95.5839 55.143L95.6371 55.2187L95.762 55.3348L95.8259 55.3859L95.9676 55.4479L96.0403 55.4715L96.1918 55.4735L96.2685 55.4676L96.4239 55.4056L96.5016 55.3662L96.6541 55.2344L96.7013 55.1862L96.7721 55.0938L96.8036 55.0466L96.8459 54.9433L96.8646 54.8882L96.8843 54.7574L96.8951 54.5095V54.362L96.8479 54.1072L96.8164 53.9872L96.7102 53.7944L96.6512 53.7069L96.4918 53.5849L96.2017 53.4895L96.1298 53.4826L96.0374 53.4679L95.999 53.46L95.9676 53.4325L95.9587 53.4167L95.9794 53.3636L96.062 53.2377L96.1141 53.1639L96.2577 53.0715L96.3335 53.0341L96.5007 53.0154L96.5843 53.0144L96.7436 53.0695L96.9384 53.2348L96.9669 53.2751L97.0102 53.3872L97.0298 53.4502L97.0574 53.6194L97.0702 53.7118L97.0839 53.9538L97.0918 54.4151V55.3771H97.3623H97.6328L97.6053 54.4672L97.6023 54.3531L97.6013 54.1485L97.6023 54.0492L97.6102 53.8721L97.6151 53.7876L97.6318 53.639L97.6416 53.5682L97.6672 53.4462L97.681 53.3882L97.7164 53.2908L97.7351 53.2456L97.7803 53.1728L97.9525 53.041L97.9761 53.0331L98.0115 53.0794L98.0194 53.0971L98.0321 53.1512L98.039 53.1817L98.0489 53.2633L98.0538 53.3076L98.0616 53.4187L98.0646 53.4787L98.0695 53.6223L98.0715 53.698L98.0744 53.878L98.0754 54.1889V55.3771H98.5672V54.0738L98.5682 53.8633L98.5692 53.7639L98.5731 53.5977L98.5751 53.519L98.582 53.3912L98.5849 53.3312L98.5948 53.2377L98.6007 53.1944L98.6144 53.1305L98.6213 53.102L98.64 53.0626L98.7148 53.0164H98.761L98.823 52.9505L98.8623 52.7705V52.7125L98.8495 52.6338L98.8387 52.5994L98.7807 52.56L98.7433 52.5433L98.6105 52.5305L98.5712 52.5276L98.4738 52.5256L98.2938 52.5246H98.2033L98.038 52.5354L97.9574 52.5423L97.8157 52.5659L97.7479 52.5787L97.6348 52.6151L97.501 52.682L97.4498 52.7184L97.3741 52.7626L97.3397 52.7813L97.2846 52.7902H97.2571L97.203 52.7626L97.1026 52.682L97.078 52.6594L97.0033 52.619L96.962 52.6003L96.8636 52.5699L96.5262 52.5246M70.4616 52.5246L70.2934 52.5551L70.2118 52.5758L70.0613 52.6446L69.9885 52.6839L69.8567 52.7882L69.7938 52.8453L69.6826 52.983L69.6305 53.0567L69.543 53.2249L69.5026 53.3135L69.4397 53.5102L69.4121 53.6115L69.3757 53.8348L69.3541 54.1938V54.2902L69.3964 54.5135L69.423 54.6276L69.5056 54.8558L69.5508 54.9669L69.6571 55.1577L69.8243 55.3564L69.8892 55.4056L70.0485 55.4508L70.1302 55.4646L70.3052 55.4459L70.3908 55.4292L70.5531 55.3505L70.6298 55.3053L70.7518 55.1735L70.7803 55.1361L70.8295 55.0397L70.8521 54.9895L70.8895 54.8744L70.9456 54.4997L70.9475 54.363L70.9003 54.123L70.8689 54.0098L70.7597 53.824L70.6977 53.7384L70.5325 53.6144L70.2295 53.5082L69.8951 53.459L70.1164 53.2377L70.1852 53.1689L70.3239 53.0813L70.3928 53.0459L70.5305 53.0262L70.5984 53.0253L70.7341 53.0725L70.9357 53.221L70.98 53.2653L71.041 53.3518L71.0675 53.3971L71.0971 53.5112L71.1079 53.5751L71.1118 53.7531L71.1108 53.8033L71.1069 53.9213L71.0951 54.1308L71.0823 54.3246L71.042 54.7082L71.0312 54.7967L71.0095 54.9462L70.9771 55.1066L70.9053 55.3771H72.5016V52.5246H72.0098V53.8466L72.0089 54.0817V54.1918L72.0059 54.3689L72.0039 54.4505L71.9971 54.5774L71.9931 54.6354L71.9813 54.721L71.9744 54.7594L71.9557 54.8115L71.9459 54.8341L71.9193 54.8607L71.8023 54.8853H71.7561L71.6941 54.8744L71.6675 54.8656L71.64 54.8282L71.6302 54.8036L71.6312 54.7249L71.6587 54.544L71.6833 54.4102L71.701 54.1505L71.7039 54.0217L71.6813 53.7767L71.6646 53.6567L71.6046 53.4344L71.5702 53.3272L71.4757 53.1325L71.4246 53.04L71.3007 52.8817L71.2357 52.8069L71.0853 52.6898L71.0075 52.6367L70.8334 52.5679L70.5521 52.5246M75.5144 52.3417L75.4928 52.3495L75.4633 52.4007L75.42 52.5403L75.4023 52.6053L75.4308 52.7607L75.5557 52.9958L75.5931 53.043L75.6482 53.1462L75.6728 53.2003L75.7072 53.3321L75.722 53.403L75.7387 53.581L75.7475 53.9213V54.1013L75.7269 54.3905L75.7121 54.5243L75.663 54.722L75.6344 54.8095L75.5557 54.9187L75.4033 54.9836H75.3452L75.2518 54.9197L75.2095 54.8764L75.1446 54.7269L75.1161 54.6413L75.0807 54.4053L75.059 53.9528V53.821L75.0452 53.5879L75.0354 53.4767L75.001 53.2839L74.9803 53.1925L74.9233 53.0371L74.8918 52.9633L74.8102 52.8433L74.7659 52.7862L74.6587 52.6987L74.6007 52.6574L74.4649 52.5994L74.3941 52.5738L74.2279 52.5423L73.9426 52.5246H73.8472L73.6741 52.5541L73.5905 52.5748L73.4449 52.6436L73.3751 52.6839L73.2551 52.7921L73.199 52.8521L73.1066 52.9997L73.0633 53.0784L72.9974 53.2653L72.9679 53.3636L72.9295 53.5899L72.9138 53.7079L72.902 53.9715L72.9157 54.4121L72.9246 54.538L72.9482 54.7269L72.961 54.8135L73.0003 54.9443L73.0239 55.0053L73.0889 55.1036L73.2275 55.2443L73.3141 55.3181L73.4803 55.4105L73.562 55.4469L73.7203 55.4646L73.799 55.4636L73.9495 55.4056L74.0243 55.3682L74.1679 55.2354L74.2338 55.1656L74.3282 55.0013L74.3695 54.9158L74.4197 54.7308L74.4394 54.6364L74.4462 54.4446L74.4453 54.3482L74.4138 54.1633L74.3941 54.0728L74.3262 53.9076L74.2889 53.8299L74.1895 53.7L74.1354 53.641L74.0056 53.5594L73.7813 53.5082H73.6997L73.5925 53.5003L73.5472 53.4935L73.5059 53.461L73.4931 53.4413L73.5089 53.3705L73.5875 53.2062L73.619 53.1472L73.739 53.0705L73.8049 53.039L73.9623 53.0184L74.042 53.0164L74.1974 53.0548L74.3833 53.1787L74.403 53.2023L74.4413 53.3066L74.46 53.3666L74.4954 53.5308L74.5131 53.6194L74.5416 53.8299L74.5741 54.1771L74.58 54.2715L74.5928 54.4318L74.5987 54.5076L74.6115 54.6344L74.6262 54.7535L74.6646 54.9167L74.6872 54.9905L74.7551 55.0977L74.9056 55.2492L75.0039 55.3338L75.2036 55.4282L75.303 55.4636L75.4977 55.4607L75.5941 55.4469L75.7731 55.3476L76.0151 55.0918L76.0623 55.022L76.1302 54.8902L76.1597 54.8223L76.198 54.6679L76.2148 54.5833L76.2305 54.3669L76.2344 54.3079L76.2374 54.1702L76.2393 53.9312V53.822L76.2325 53.6223L76.2275 53.5259L76.2118 53.3518L76.1931 53.1846L76.1253 52.92L76.0859 52.799L75.9738 52.618L75.7534 52.4292L75.6885 52.3948L75.602 52.3544L75.5636 52.3397M60.9934 52.5246V53.2367L60.9836 53.4197L60.9767 53.5062L60.9502 53.6469L60.9354 53.7128L60.8902 53.8249L60.7967 53.9735L60.7239 54.0659L60.6394 54.2695L60.6069 54.3738L60.601 54.5882L60.6089 54.6944L60.6816 54.9L60.8793 55.1794L60.9443 55.2453L61.0525 55.3338L61.1075 55.3721L61.2374 55.4164L61.2738 55.4262L61.3603 55.438L61.4066 55.4439L61.5177 55.4498L61.5767 55.4528L61.7193 55.4548H61.9771H62.0685L62.222 55.4518L62.2957 55.4508L62.4187 55.4459L62.5348 55.439L62.698 55.4135L62.7708 55.3967L62.879 55.3436L62.9302 55.3121L63.0266 55.2217L63.0698 55.1784L63.1348 55.0908L63.1652 55.0456L63.2056 54.9453L63.2243 54.8921L63.2439 54.7692L63.2557 54.5459V54.422L63.2164 54.2115L63.1898 54.1121L63.0974 53.9508L63.0443 53.8761L62.8987 53.7639L62.6194 53.6479L62.5702 53.6351L62.4984 53.6036L62.4659 53.5869L62.4216 53.5397L62.403 53.5131L62.3823 53.4423L62.3705 53.3007V53.2466L62.3803 53.1639L62.3862 53.1276L62.4118 53.0764L62.4275 53.0548L62.4728 53.0302L62.5672 53.0164H62.6036L62.6587 53.0036L62.6843 52.9948L62.7197 52.9613L62.7354 52.9417L62.7531 52.8846L62.7639 52.7705V52.7095L62.7492 52.6289L62.7344 52.5944L62.6508 52.5561L62.6233 52.5482L62.5446 52.5384L62.5013 52.5335L62.3872 52.5285L62.3252 52.5266L62.1689 52.5256L61.8787 52.5246M115.289 52.5246V53.2131L115.277 53.3961L115.269 53.4836L115.24 53.64L115.081 54.0453L115.016 54.1554L114.947 54.3826L114.923 54.4958L114.933 54.7171L114.948 54.8243L115.036 55.021L115.251 55.2708L115.304 55.3121L115.411 55.3712L115.468 55.3967L115.608 55.4272L115.687 55.44L115.899 55.4489L115.959 55.4498L116.098 55.4489L116.341 55.443L116.438 55.44L116.603 55.4341L116.679 55.4312L116.808 55.4233L116.868 55.4184L116.967 55.4066L117.013 55.3997L117.09 55.381L117.161 55.3613L117.265 55.2964L117.315 55.259L117.415 55.1469L117.471 55.081L117.551 54.9384L117.585 54.8656L117.624 54.7141L117.638 54.6374V54.483L117.633 54.4072L117.597 54.2587L117.575 54.1859L117.505 54.0521L117.466 53.9872L117.365 53.8751L117.31 53.822L117.18 53.7384L116.954 53.6538L116.891 53.64L116.801 53.6105L116.762 53.5948L116.715 53.5525L116.695 53.5289L116.68 53.4639L116.684 53.3272L116.69 53.281L116.711 53.2062L116.724 53.1718L116.76 53.1197L116.78 53.0961L116.834 53.0636L116.936 53.0341L116.976 53.0282L117.038 53.0066L117.067 52.9938L117.107 52.9554L117.125 52.9338L117.146 52.8758L117.157 52.7636V52.7046L117.142 52.6269L117.126 52.5935L117.036 52.5551L117.007 52.5482L116.924 52.5384L116.879 52.5335L116.759 52.5285L116.693 52.5266L116.529 52.5256L116.223 52.5246M99.1416 52.5246L99.1741 53.763L99.178 53.9164L99.1849 54.1692L99.1889 54.2872L99.1977 54.478L99.2017 54.5666L99.2144 54.7072L99.2213 54.7721L99.239 54.8735L99.2587 54.9669L99.3275 55.084L99.4918 55.2462L99.5853 55.3269L99.7564 55.4154L99.9836 55.4351L100.012 55.4272L100.139 55.4135L100.213 55.4066L100.411 55.3958L100.517 55.3908L100.761 55.383L100.886 55.38L101.149 55.378L102.108 55.3771V52.5246H101.622L101.595 53.7295L101.567 54.9344L101.149 54.9649L100.731 54.9944V52.5246H100.239L100.237 53.582V53.7226L100.234 53.9636L100.231 54.0767L100.223 54.2666L100.218 54.3561L100.202 54.4997L100.193 54.5666L100.171 54.6698L100.157 54.7161L100.124 54.7839L100.107 54.8135L100.062 54.8498L100.039 54.8656L99.9826 54.8764L99.8833 54.8695L99.842 54.8617L99.783 54.8164L99.7702 54.7997L99.7495 54.7525L99.7397 54.7259L99.7239 54.6521L99.7171 54.6108L99.7053 54.5046L99.6994 54.4456L99.6905 54.299L99.6866 54.2203L99.6797 54.0276L99.6708 53.6794L99.6433 52.5246M88.7744 54.8892L88.8305 54.8912L88.921 54.9L88.9633 54.9049L89.0253 54.9207L89.0528 54.9285L89.0882 54.9512L89.102 54.963L89.1108 54.9935L89.1118 55.0092L89.0941 55.0476L89.0833 55.0682L89.041 55.1164L88.9525 55.199L88.8777 55.2639L88.7646 55.3456L88.7125 55.379L88.623 55.4026L88.5797 55.4066L88.4862 55.3731L88.4371 55.3495L88.3121 55.262L88.262 55.2256L88.1853 55.1626L88.1498 55.1331L88.1026 55.081L88.082 55.0564L88.0643 55.0161L88.0593 54.9964L88.0721 54.9649L88.083 54.9512L88.1272 54.9285L88.1538 54.9177L88.2305 54.9039L88.2728 54.8971L88.382 54.8892L88.5836 54.8853H88.6544M49.3485 52.324L49.2836 52.3485L49.1685 52.4302L49.1134 52.4764L49.021 52.5925L48.9777 52.6544L48.9098 52.7951L48.8793 52.8689L48.838 53.0253L48.8203 53.1049L48.8075 53.2692L48.8046 53.3508L48.8223 53.5112L48.8361 53.5908L48.8862 53.7394L49.0003 53.938L49.0416 53.9892L49.0948 54.0659L49.1174 54.0994L49.1341 54.1446L49.138 54.1643L49.1203 54.1849L49.0554 54.1967H49.0092L48.9059 54.2587L48.8548 54.298L48.7584 54.4151L48.7131 54.478L48.6452 54.6197L48.6 54.8253V54.8784L48.6482 55.0141L48.7623 55.1971L48.7987 55.2374L48.9 55.2935L48.9315 55.3053L49.0121 55.3249L49.0574 55.3338L49.1734 55.3476L49.2364 55.3535L49.3967 55.3623L49.4833 55.3662L49.6967 55.3712L49.8118 55.3741L50.0902 55.3761L50.5889 55.3771H52.2531L52.2216 55.1558L52.2138 55.1017L52.1754 55.0289L52.1607 55.0131L52.1095 54.9885L52.079 54.9777L51.9905 54.96L51.9403 54.9521L51.8016 54.9403L51.7259 54.9344L51.5262 54.9266L51.4171 54.9226L51.1446 54.9167L50.641 54.9069L50.4108 54.903L50.0105 54.8892L49.9161 54.8853L49.7459 54.8764L49.6643 54.8715L49.5207 54.8617L49.4528 54.8558L49.3387 54.8439L49.2856 54.838L49.2039 54.8253L49.1675 54.8194L49.1203 54.8056L49.0918 54.7839V54.7712L49.139 54.7476L49.1695 54.7357L49.2679 54.7171L49.322 54.7082L49.4587 54.6964L49.6918 54.6885H49.7607L49.8777 54.6866L49.9328 54.6856L50.0272 54.6797L50.1167 54.6718L50.2505 54.6364L50.3134 54.6138L50.4285 54.5361L50.6262 54.3541L50.699 54.2813L50.8013 54.1623L50.8466 54.1043L50.9026 53.9912L50.9262 53.9331L50.9498 53.7944L50.9607 53.523V53.3862L50.9262 53.0961L50.9154 53.0272L50.8889 52.9072L50.8436 52.7676L50.8171 52.7095L50.7423 52.6062L50.702 52.5571L50.6036 52.4715L50.5515 52.4312L50.4334 52.3653L50.3725 52.3338L50.2387 52.2885L50.102 52.2472L49.802 52.2335M110.266 51.0246L110.164 51.0482L109.975 51.1476L109.721 51.3738L109.671 51.4338L109.598 51.541L109.566 51.5951L109.525 51.7033L109.508 51.7594L109.493 51.8872V52.1233L109.5 52.2521L109.464 52.5492L109.452 52.622L109.417 52.7597L109.353 52.9397L109.327 53.0007L109.283 53.1492L109.262 53.2279L109.231 53.4118L109.218 53.5082L109.2 53.7276L109.19 54.0954V54.8853H108.6V52.5246H108.108V55.3771H109.37L109.601 55.3761H109.709L109.883 55.3721L109.963 55.3702L110.091 55.3613L110.15 55.3564L110.243 55.3407L110.328 55.323L110.437 55.2551L110.49 55.2148L110.596 55.0889L110.672 54.9974L110.787 54.7623L110.838 54.6384L110.898 54.3492L110.921 54.1997L110.925 53.8741L110.863 53.3656L110.836 53.2338L110.776 53.0321L110.743 52.9397L110.661 52.798L110.614 52.7331L110.49 52.6259L110.237 52.4774L110.176 52.4469L110.091 52.3594L110.055 52.3121L110.015 52.201L110.001 52.1439V52.022L110.006 51.961L110.04 51.843L110.062 51.7849L110.127 51.6836L110.162 51.6364L110.251 51.5646L110.299 51.5341L110.409 51.5066L110.59 51.5292L110.64 51.5479L110.726 51.5941L110.766 51.6197L110.833 51.6885L110.864 51.7259L110.914 51.8272L110.938 51.8823L110.974 52.0259L110.991 52.1036L111.015 52.3003L111.026 52.4066L111.04 52.6653L111.046 52.804L111.053 53.1364L111.058 53.7295L111.059 55.3771H111.551V53.403L111.546 52.978L111.543 52.7774L111.529 52.442L111.521 52.2836L111.497 52.0249L111.482 51.9049L111.442 51.7102L111.42 51.6207L111.362 51.478L111.331 51.4131L111.251 51.3108L111.209 51.2636L111.106 51.1898L110.921 51.0964L110.807 51.0482L110.584 51.0069L110.475 50.9951M82.7843 52.4656L82.7282 52.4794L82.6279 52.5246L82.5797 52.5502L82.4951 52.619L82.4538 52.6574L82.3839 52.7508L82.3505 52.801L82.2944 52.921L82.2689 52.9849L82.2266 53.1315L82.2079 53.2092L82.1794 53.3853L82.1666 53.4767L82.1508 53.6823L82.141 54.0246V54.8853H81.5508V52.5246H81.059V55.3771H82.2413L82.5167 55.3692L82.6505 55.3643L82.8876 55.3476L82.9987 55.3377L83.1708 55.3151L83.2466 55.3033L83.3272 55.2757L83.4059 55.2335L83.5367 55.0948L83.5967 55.0171L83.6892 54.8105L83.7295 54.6994L83.7816 54.4279L83.8131 53.9528V53.8171L83.7954 53.5712L83.7836 53.4531L83.7423 53.2416L83.7187 53.1403L83.6557 52.9643L83.6213 52.8817L83.5377 52.743L83.4934 52.679L83.3902 52.5807L83.3361 52.5364L83.2141 52.4784L83.1512 52.4548L83.0115 52.439M119.763 52.4489L119.46 52.5699L119.374 52.6269L119.248 52.7636L119.191 52.8384L119.114 53.04L119.098 53.0961L119.072 53.2259L119.062 53.2948L119.046 53.4531L119.039 53.5358L119.031 53.7276L119.026 54.0561V54.8853H118.436V52.5246H117.944V55.3771H119.127L119.403 55.3682L119.537 55.3633L119.776 55.3456L119.888 55.3358L120.062 55.3121L120.139 55.2994L120.221 55.2708L120.28 55.2394L120.385 55.1292L120.434 55.0682L120.515 54.9089L120.554 54.8243L120.613 54.6276L120.639 54.5262L120.674 54.304L120.689 54.1908L120.696 53.9567L120.697 53.8387L120.678 53.6026L120.665 53.4866L120.616 53.2623L120.509 52.9525L120.452 52.8295L120.307 52.6476L120.23 52.5679L120.052 52.4774L119.961 52.4439M67.503 51.2115L67.4193 51.2262L67.2561 51.2803L67.019 51.4023L66.9738 51.4318L66.8862 51.5105L66.8439 51.5528L66.7633 51.6551L66.6846 51.7633L66.5538 52.0397L66.4938 52.1862L66.4043 52.5256L66.3266 53.0823L66.3177 53.2102L66.3089 53.4453L66.3059 53.5584L66.3089 53.7649L66.3118 53.8653L66.3266 54.0472L66.3364 54.1348L66.3639 54.2951L66.3944 54.4505L66.4967 54.7072L66.7151 55.0367L66.779 55.1105L66.8862 55.2138L66.9374 55.259L67.0387 55.3171L67.0918 55.3407L67.2148 55.3653L67.4538 55.3771H67.5433L67.6869 55.3643L67.7538 55.3554L67.8669 55.319L67.921 55.2964L68.0252 55.2276L68.0774 55.1882L68.1934 55.078L68.2623 55.0082L68.3557 54.899L68.3961 54.8469L68.4403 54.7397L68.4571 54.6826L68.4639 54.5361L68.4462 54.2253L68.4334 54.0689L68.3715 53.8181L68.3341 53.703L68.221 53.5338L68.158 53.458L67.9918 53.3666L67.678 53.3115H67.5905L67.4243 53.3813L67.3436 53.4256L67.2049 53.5653L67.141 53.642L67.0505 53.8289L66.9915 54.1358V54.1948L66.9866 54.2754L66.9826 54.3099L66.9708 54.3453L66.963 54.358L66.9403 54.3512L66.8951 54.2951L66.8823 54.2744L66.8577 54.179L66.8469 54.124L66.8272 53.9735L66.8184 53.8928L66.8066 53.7059L66.7987 53.4059L66.7977 53.2495L66.8193 52.9653L66.8331 52.8285L66.8813 52.5856L66.9089 52.4695L66.9836 52.2698L67.0239 52.1754L67.1223 52.022L67.1744 51.9502L67.2964 51.8439L67.3593 51.7967L67.503 51.7397L67.5767 51.718L67.74 51.7131L68.0046 51.7653L68.0636 51.7849L68.1649 51.8351L68.2131 51.8626L68.2928 51.9354L68.3312 51.9748L68.3921 52.0771L68.4197 52.1331L68.4639 52.2748L68.4846 52.3525L68.5151 52.5433L68.5279 52.6456L68.5466 52.8935L68.5544 53.0253L68.5623 53.34L68.5672 53.8967V55.3771H69.059V53.58L69.058 53.2653L69.0571 53.1167L69.0531 52.8728L69.0512 52.7587L69.0433 52.5738L69.0393 52.4872L69.0256 52.3495L69.0187 52.2846L68.998 52.1803L68.9872 52.1321L68.9587 52.0495L68.8357 51.8262L68.7826 51.7466L68.6607 51.6079L68.5967 51.543L68.458 51.4348L68.3872 51.3836L68.2357 51.3069L68.158 51.2715L67.9977 51.2262L67.9171 51.2066L67.7518 51.1938L67.6692 51.1908M113.912 53.0794L113.956 53.1207L114.021 53.2653L114.049 53.3469L114.087 53.5712L114.108 53.9931V54.1102L114.099 54.2921L114.092 54.3767L114.068 54.5076L114.052 54.5676L114.007 54.6639L113.911 54.7869L113.862 54.8361L113.778 54.9089L113.738 54.9413L113.67 54.9807L113.637 54.9954L113.584 54.9984L113.559 54.9944L113.519 54.96L113.5 54.9374L113.472 54.8626L113.459 54.8194L113.441 54.7033L113.433 54.6403L113.425 54.48L113.422 54.3944L113.42 54.1898V54.0876L113.425 53.9036L113.428 53.8151L113.439 53.6597L113.446 53.5859L113.465 53.4571L113.476 53.3971L113.501 53.2948L113.515 53.2476L113.549 53.1708L113.567 53.1354L113.609 53.0843L113.764 53.0164H113.82M77.458 54.0197L77.5013 54.0541L77.578 54.1456L77.6154 54.1967L77.6744 54.3177L77.7148 54.4682V54.5154L77.6843 54.6285L77.6646 54.6866L77.6085 54.7977L77.578 54.8498L77.5121 54.9295L77.4197 54.9836H77.3941L77.3252 54.9276L77.2898 54.8931L77.2269 54.7938L77.1895 54.7249L77.1472 54.5882L77.1315 54.5213V54.3944L77.1364 54.3335L77.1767 54.2243L77.283 54.0895L77.3164 54.062L77.3695 54.0285L77.3941 54.0167L77.4374 54.0157M106.309 54.2076L106.372 54.2262L106.398 54.239L106.423 54.2862L106.436 54.3944V54.481L106.403 54.6325L106.381 54.7033L106.31 54.8184L106.271 54.8705L106.169 54.9403L105.987 54.9836H105.92L105.798 54.9423L105.744 54.9167L105.688 54.843L105.673 54.8046L105.659 54.6767L105.666 54.4741L105.673 54.4279L105.697 54.359L105.713 54.3276L105.764 54.2843L105.794 54.2656L105.881 54.24L106.067 54.2154L106.147 54.2085L106.26 54.2066M53.4649 54.0895L53.5082 54.121L53.5731 54.2203L53.6164 54.4121V54.4712L53.5879 54.601L53.5692 54.6659L53.5151 54.7869L53.4856 54.843L53.4187 54.9276L53.3213 54.9836H53.2957L53.2269 54.9276L53.1915 54.8931L53.1285 54.7938L53.0921 54.7259L53.0498 54.5912L53.0341 54.5243L53.0321 54.3984L53.0361 54.3374L53.0734 54.2292L53.1738 54.0984L53.22 54.06L53.3213 54.0413H53.3715M57.2026 54.0895L57.2459 54.121L57.3108 54.2203L57.3541 54.4121V54.4712L57.3256 54.601L57.3069 54.6659L57.2528 54.7869L57.2233 54.843L57.1564 54.9276L57.059 54.9836H57.0334L56.9646 54.9276L56.9292 54.8931L56.8662 54.7938L56.8298 54.7259L56.7875 54.5912L56.7718 54.5243L56.7698 54.3984L56.7738 54.3374L56.8111 54.2292L56.9115 54.0984L56.9577 54.06L57.059 54.0413H57.1092M116.869 54.1564L116.91 54.1771L116.998 54.2508L117.04 54.2912L117.109 54.3817L117.157 54.5056V54.5459L117.125 54.6482L117.105 54.7013L117.046 54.8056L117.015 54.8548L116.948 54.9315L116.858 54.9836H116.833L116.791 54.9767L116.772 54.9718L116.758 54.959L116.745 54.903L116.73 54.7426L116.725 54.658L116.724 54.481L116.725 54.3944L116.737 54.2538L116.741 54.2233L116.752 54.179L116.771 54.1436L116.793 54.1289M116.052 54.123L116.116 54.1456L116.143 54.1594L116.179 54.2056L116.193 54.2321L116.206 54.3118L116.207 54.481L116.204 54.541L116.185 54.6453L116.173 54.6954L116.136 54.78L116.117 54.8194L116.068 54.8823L116.041 54.9099L115.98 54.9492L115.95 54.9659L115.881 54.9797L115.845 54.9836L115.771 54.9708L115.734 54.962L115.657 54.9217L115.618 54.898L115.541 54.8292L115.499 54.7869L115.432 54.6935L115.387 54.5833V54.5361L115.455 54.4279L115.496 54.3728L115.619 54.2685L115.684 54.2203L115.823 54.1505L116.008 54.1171M62.5426 54.2154L62.5948 54.2253L62.6715 54.302L62.7059 54.3472L62.7413 54.4692L62.7531 54.5331L62.7403 54.6659L62.6607 54.842L62.6115 54.902L62.5318 54.961L62.4944 54.9807L62.4413 54.959L62.4167 54.9384L62.3882 54.8331L62.3764 54.7712L62.3705 54.5833V54.5007L62.3774 54.3826L62.3823 54.3315L62.4039 54.2656L62.4167 54.239L62.4561 54.2154M70.3279 54.1023L70.3652 54.1358L70.4105 54.2479L70.4292 54.3099L70.4341 54.4692L70.3928 54.7476L70.3761 54.8154L70.3348 54.9049L70.3121 54.9423L70.259 54.9728L70.2305 54.9807L70.1636 54.9512L70.1292 54.9295L70.0475 54.843L70.0318 54.8233L70.0052 54.7623L69.9925 54.7289L69.9748 54.6472L69.962 54.3758L69.9679 54.3128L69.9866 54.2184L69.9974 54.1761L70.0289 54.118L70.0466 54.0935L70.0948 54.0649L70.1902 54.0492H70.2443M91.8443 54.0256L91.8767 54.0335L91.9338 54.0787L91.9613 54.1053L92.0066 54.178L92.0262 54.2174L92.0557 54.3099L92.0813 54.4053L92.0734 54.6108L92.0666 54.66L92.0341 54.7515L91.9574 54.8656L91.9131 54.9099L91.8433 54.958L91.8108 54.9748L91.7548 54.9649L91.7272 54.9521L91.6741 54.8784L91.6466 54.8331L91.5846 54.6905L91.5502 54.6079L91.5177 54.4603L91.5069 54.3905L91.5216 54.2715L91.5344 54.2154L91.5954 54.1269L91.739 54.0325L91.7754 54.0187M73.7961 54.0738L73.8423 54.12L73.9053 54.2587L73.9318 54.3325L73.9456 54.4987L73.8964 54.7377L73.861 54.8154L73.7902 54.9128L73.7548 54.9521L73.683 54.9728H73.6475L73.5757 54.9167L73.5403 54.8784L73.4705 54.7446L73.4371 54.6718L73.4115 54.5046L73.4056 54.421L73.4282 54.2617L73.4449 54.1869L73.5079 54.0748L73.6367 54H73.6957M61.7764 54.1121L61.803 54.122L61.8384 54.1623L61.8541 54.1869L61.8698 54.2617L61.8787 54.423V54.5459L61.8344 54.7318L61.8059 54.8144L61.7105 54.9158L61.6574 54.9551L61.5167 54.9669L61.442 54.961L61.2639 54.8774L61.2148 54.8489L61.1469 54.778L61.1174 54.7407L61.0879 54.658L61.078 54.6167L61.083 54.5292L61.0898 54.4859L61.1262 54.4013L61.1489 54.36L61.2128 54.2843L61.2482 54.2479L61.3367 54.1879L61.3839 54.1603L61.4931 54.122L61.6751 54.0984H61.7164M93.3216 53.462L93.3364 53.4718L93.363 53.5171L93.3767 53.5436L93.3984 53.6213L93.4092 53.6646L93.4259 53.7718L93.4338 53.8289L93.4436 53.9646L93.4495 54.1967V54.3413L93.4298 54.5784L93.4171 54.6866L93.3767 54.8371L93.3659 54.8685L93.3413 54.9128L93.3275 54.9315L93.3 54.9482L93.2853 54.9531L93.2548 54.9403L93.239 54.9305L93.2076 54.8862L93.1928 54.8626L93.1672 54.7889L93.1554 54.7476L93.1367 54.6472L93.12 54.541L93.1052 54.2853L93.1013 54.1564L93.1151 53.9085L93.121 53.8495L93.1367 53.7472L93.1702 53.6213L93.1879 53.5741L93.2233 53.5112L93.241 53.4836L93.2744 53.459L93.2902 53.4512M96.241 54.0295L96.2675 54.0482L96.3128 54.1092L96.3541 54.1761L96.3954 54.3639L96.4082 54.4613L96.3856 54.6561L96.3757 54.7013L96.3413 54.781L96.2685 54.8744L96.2184 54.9167L96.1426 54.9344L96.1062 54.9325L96.0374 54.8617L95.9744 54.781L95.9076 54.5912L95.883 54.4958L95.8898 54.3099L95.9007 54.2223L95.9744 54.0895L95.9961 54.062L96.0521 54.0236L96.1515 54H96.1839M58.6416 53.519L58.6534 53.5387L58.6751 53.6154L58.6859 53.6587L58.7026 53.7748L58.7282 54.1967V54.2784L58.7223 54.4239L58.7193 54.4928L58.7066 54.6118L58.6997 54.6669L58.682 54.7584L58.6721 54.7997L58.6485 54.8617L58.6357 54.8882L58.6072 54.9197L58.5925 54.9315H58.559L58.5423 54.9276L58.5049 54.8941L58.4862 54.8735L58.4469 54.8066L58.4184 54.7535L58.38 54.6138L58.3643 54.54L58.3475 54.3738L58.3377 54.2046L58.3702 53.8643L58.383 53.7856L58.4164 53.6508L58.4351 53.5899L58.4803 53.5043L58.5039 53.4689L58.5561 53.4502M119.852 52.9495L119.881 52.9544L119.934 52.9879L119.96 53.0085L120.007 53.0705L120.03 53.1049L120.07 53.1954L120.09 53.2436L120.122 53.3597L120.187 53.7994L120.2 53.9656L120.181 54.2498L120.165 54.3826L120.095 54.5921L120.054 54.6856L119.936 54.8095L119.905 54.8341L119.832 54.8656L119.713 54.8853H119.668L119.607 54.8617L119.58 54.843L119.549 54.7505L119.542 54.721L119.533 54.6413L119.528 54.598L119.523 54.4879L119.521 54.4279L119.519 54.2803L119.518 54.2017V54.0118V53.8446L119.526 53.5869L119.531 53.4698L119.55 53.2977L119.562 53.221L119.598 53.1158L119.671 53.0125L119.703 52.9859L119.765 52.9564L119.795 52.9466M82.9564 52.9269L83.0095 52.9721L83.1246 53.101L83.16 53.1433L83.2161 53.2367L83.2407 53.2859L83.2771 53.4L83.2918 53.46L83.3105 53.6026L83.3213 53.8584V54.0276L83.2918 54.304L83.2731 54.4318L83.2053 54.6256L83.1669 54.7112L83.0616 54.8203L82.863 54.8853H82.8069L82.7331 54.8685L82.7007 54.8538L82.6643 54.7731L82.6564 54.7466L82.6466 54.6748L82.6426 54.6344L82.6377 54.5292L82.6357 54.4721L82.6338 54.3305L82.6328 54.2538V54.0679V53.9243L82.6416 53.6862L82.6466 53.5751L82.6672 53.398L82.68 53.3164L82.7134 53.1935L82.7803 53.0597L82.8167 53.0125L82.8679 52.9554L82.8925 52.9328L82.9348 52.9249M110.135 52.9554L110.223 53.0597L110.245 53.0872L110.281 53.1817L110.298 53.2348L110.325 53.3676L110.35 53.5082L110.37 53.8505L110.374 54.0226L110.353 54.3462L110.344 54.421L110.319 54.5489L110.268 54.6954L110.24 54.7495L110.127 54.8312L109.924 54.8853H109.865L109.786 54.8705L109.753 54.8577L109.714 54.782L109.707 54.7574L109.696 54.6885L109.692 54.6502L109.687 54.5508L109.684 54.4967L109.683 54.361L109.682 54.2872V54.1092V53.9508L109.69 53.7118L109.696 53.6017L109.72 53.4384L109.735 53.3646L109.78 53.2495L109.879 53.101L109.927 53.044L109.994 52.9721L110.023 52.9426L110.069 52.9249L110.091 52.922M67.7282 53.7954L67.7852 53.8249L67.8128 53.8436L67.861 53.9056L67.8836 53.939L67.92 54.0266L67.9367 54.0728L67.9574 54.179L67.9652 54.2341L67.9643 54.3531L67.9367 54.541L67.922 54.601L67.8649 54.6915L67.8334 54.7308L67.7567 54.7751L67.7184 54.7908L67.6407 54.783L67.6033 54.7712L67.5433 54.7023L67.5207 54.6669L67.4911 54.539L67.4793 54.4692L67.4695 54.3079L67.4675 54.2272L67.4784 54.0797L67.5207 53.9233L67.5492 53.878L67.6082 53.8249L67.6387 53.8033L67.6987 53.7954M50.0046 52.7223L50.097 52.7715L50.2721 52.918L50.343 52.9889L50.4285 53.1846L50.463 53.2869L50.4767 53.5102L50.4738 53.6203L50.4167 53.821L50.397 53.8682L50.3469 53.9479L50.2505 54.0433L50.1905 54.0856L50.0311 54.1515L49.8118 54.1967H49.5925L49.8344 53.9557L49.8984 53.8908L49.9898 53.7305L50.0292 53.6469L50.0675 53.462L50.0803 53.3685L50.0636 53.1797L49.9731 52.9112L49.9397 52.8472L49.9259 52.7685L49.9269 52.7361L49.9741 52.7213M92.7266 53.0233L92.7659 53.0282L92.8112 53.0489L92.8289 53.0617L92.8367 53.102L92.8131 53.1885L92.7728 53.2879L92.7098 53.4738L92.6813 53.5633L92.643 53.7217L92.6272 53.7964L92.6164 53.9194L92.6321 54.0551L92.6548 54.1131L92.6666 54.1721V54.1928L92.638 54.178L92.6184 54.1613L92.5535 54.0767L92.5161 54.0256L92.4187 53.8731L92.3538 53.7698L92.2023 53.6302L91.9515 53.5259L91.8767 53.518L91.7607 53.4777L91.7371 53.4669L91.7036 53.4433L91.682 53.4059V53.3872L91.7066 53.3469L91.7223 53.3262L91.7744 53.283L91.8315 53.2397L92.0016 53.1561L92.0921 53.1167L92.2928 53.0567L92.5731 53.0164H92.6371M58.0652 53.0105L58.1115 53.0184L58.141 53.041V53.044L58.1262 53.0882L58.1174 53.1148L58.0879 53.1974L57.96 53.5407L57.78 54.0148L57.6138 53.762L57.5607 53.6803L57.4259 53.5741L57.1957 53.5082H57.119L57.0295 53.4748L56.9951 53.4541L56.9882 53.3892L56.9941 53.3538L57.0669 53.2712L57.2636 53.1403L57.3138 53.1158L57.4849 53.0715L57.5764 53.0508L57.7771 53.0233L57.8744 53.0115L58.0318 53.0085M106.33 53.0262L106.363 53.0341L106.402 53.0695L106.417 53.0912L106.426 53.1649L106.417 53.3351L106.41 53.4108L106.364 53.5338L106.338 53.5899L106.265 53.6626L106.226 53.6921L106.14 53.7049L106.097 53.703L106.013 53.643L105.994 53.6243L105.965 53.5121L105.944 53.2948V53.2367L105.954 53.1531L105.961 53.1158L105.991 53.0685L106.009 53.0479L106.068 53.0272L106.196 53.0164H106.253M88.4744 53.1384L88.4862 53.1531L88.5059 53.2013L88.5344 53.4099V53.4866L88.5295 53.5899L88.5256 53.6351L88.5108 53.6813L88.501 53.6971L88.4705 53.6931L88.4528 53.6862L88.4036 53.639L88.3771 53.6135L88.3495 53.5141L88.3397 53.46V53.338L88.3436 53.279L88.3702 53.1826L88.4361 53.1148H88.4498M49.4774 53.1561L49.5462 53.2564L49.562 53.2987L49.557 53.401L49.5502 53.4531L49.5128 53.5495L49.4911 53.5928L49.437 53.6469L49.4095 53.6656L49.3564 53.642L49.3298 53.6154L49.3013 53.5151L49.2905 53.46V53.338L49.2944 53.279L49.322 53.1826L49.3898 53.1148H49.4184M61.7774 53.0302L61.803 53.04L61.8374 53.0774L61.8531 53.1L61.8698 53.1689L61.8787 53.3115V53.3685L61.8698 53.4541L61.863 53.4925L61.8374 53.5456L61.8226 53.5672L61.7774 53.5928L61.682 53.6066H61.6436L61.5866 53.5928L61.561 53.583L61.5266 53.5456L61.5108 53.523L61.4941 53.4541L61.4882 53.4158L61.4852 53.3115V53.2544L61.4941 53.1689L61.501 53.1305L61.5266 53.0774L61.5413 53.0558L61.5866 53.0302L61.682 53.0164H61.7203M116.002 53.0341L116.041 53.04L116.105 53.0636L116.134 53.0774L116.179 53.1207L116.199 53.1453L116.228 53.2102L116.254 53.3361L116.26 53.3941L116.261 53.4767L116.259 53.5131L116.235 53.5584L116.219 53.578L116.163 53.5967L116.033 53.6066H115.979L115.902 53.5958L115.868 53.5879L115.826 53.5525L115.808 53.5308L115.789 53.461L115.782 53.4207L115.78 53.3046V53.2407L115.788 53.1502L115.794 53.1108L115.821 53.0626L115.836 53.044L115.888 53.0292M82.3367 51.3935L82.2541 51.4033L82.2157 51.4112L82.1567 51.4357L82.1292 51.4505L82.0928 51.4908L82.0603 51.5715L82.0446 51.6512L82.0485 51.78L82.0564 51.839L82.1046 51.9256L82.1341 51.963L82.2266 52.0043L82.4105 52.0151L82.4685 52.0082L82.5502 51.9876L82.5856 51.9757L82.6318 51.9354L82.6515 51.9118L82.6721 51.841L82.679 51.8007L82.682 51.6885V51.6226L82.6731 51.5321L82.6653 51.4918L82.6328 51.4426L82.6121 51.422L82.5443 51.4023L82.3879 51.3935M119.114 51.3807L119.051 51.4053L118.961 51.4918L118.924 51.54L118.895 51.66L118.939 51.8558L118.973 51.9207L119.079 51.9915L119.304 52.0141L119.359 52.0082L119.437 51.9876L119.473 51.9748L119.518 51.9344L119.538 51.9108L119.557 51.84L119.564 51.7997L119.567 51.6885V51.6285L119.557 51.541L119.55 51.5007L119.52 51.4446L119.502 51.42L119.446 51.3885L119.327 51.36L119.249 51.3482M74.5377 51.3512L74.4275 51.4043L74.3193 51.5459L74.3026 51.598L74.3007 51.6944L74.3036 51.7397L74.3351 51.8194L74.3548 51.8577L74.4118 51.9177L74.4423 51.9453L74.518 51.9826L74.5564 51.9994L74.641 52.0112L74.6833 52.0131L74.7698 51.9964L74.8121 51.9836L74.8918 51.9344L74.9292 51.9049L74.9941 51.8194L75.0315 51.7603L75.0433 51.658L74.9675 51.4997L74.9203 51.4436L74.7984 51.3777L74.7344 51.3521L74.6026 51.3472M35.1787 26.1885L35.1246 26.2672V26.3174L35.0734 26.4276L35.042 26.4826L34.9456 26.5859L34.8934 26.6341L34.7774 26.7059L34.6072 26.7541H34.5423L34.4764 26.7905L34.4715 26.9017L34.4882 26.9449L34.5 27.001L34.502 27.0246L34.4784 27.0413L34.4616 27.0443L34.3948 27.0236L34.2384 26.9508L33.8469 26.7541L33.7711 26.7157L33.6551 26.6744L33.6029 26.6587L33.5341 26.6646L33.5056 26.6735L33.4839 26.7266L33.5036 26.8594L33.5223 26.9164L33.4997 27.0315L33.481 27.0876L33.4043 27.183L33.362 27.2262L33.2548 27.2764L33.0885 27.2744L33.0541 27.2607L32.9813 27.2862L32.9016 27.3836L32.8869 27.423L32.82 27.482L32.7836 27.5076L32.6921 27.5351L32.6449 27.5439L32.5515 27.5351L32.4354 27.4751L32.4098 27.4495L32.2977 27.4171L32.2348 27.4033L32.0725 27.3954H31.9879L31.8108 27.4121L31.5649 27.4672L31.5187 27.483L31.441 27.5253L31.4056 27.5489L31.3475 27.6089L31.32 27.6413L31.2787 27.721L31.2334 27.8685L31.2079 27.9826L31.1154 28.1813L31.0633 28.2748L30.9295 28.4194L30.8587 28.4833L30.7023 28.5561L30.4613 28.5669L30.3915 28.5502L30.2813 28.4823L30.2066 28.3662V28.3289L30.1672 28.2698L30.0708 28.2295H30.0334L29.939 28.1862L29.8121 28.081L29.7708 28.0318L29.6911 27.9935L29.5751 28.0259L29.5407 28.0554L29.4541 28.0702L29.3184 28.0289L29.2574 27.9905L29.161 27.9521L29.1157 27.9403L29.042 27.9561L29.0075 27.9718L28.9466 28.0466L28.86 28.2295L28.8403 28.2797L28.801 28.3574L28.7813 28.3918L28.739 28.439L28.7174 28.4587L28.6721 28.4754L28.5993 28.4676L28.5561 28.4508L28.4626 28.4882L28.4174 28.5157L28.3436 28.6062L28.3121 28.6544L28.2875 28.7558L28.2856 28.7794L28.2964 28.8207L28.3377 28.8689L28.3829 28.8964L28.4262 28.9869L28.44 29.0351L28.4252 29.1492L28.4105 29.2072L28.3436 29.3213L28.1911 29.4679L28.1164 29.5171L28.0338 29.6026L28.0043 29.6439L28.0102 29.7089L28.0239 29.7384L28.1154 29.7787L28.3466 29.8033H28.4272L28.5688 29.8446L28.6003 29.8564L28.6485 29.8889L28.6928 29.943L28.7144 30.001L28.7036 30.1249L28.6898 30.1859L28.62 30.301L28.5787 30.3551L28.4656 30.4397L28.2639 30.5095L28.2167 30.5154L28.141 30.5361L28.1056 30.5479L28.0515 30.5833L27.9639 30.7485L27.957 30.7967L27.9266 30.8617L27.9059 30.8902L27.8174 30.9226L27.7889 30.9295L27.7151 30.9384L27.6748 30.9423L27.5725 30.9462L27.5164 30.9472H27.3797L27.1308 30.9453L27.0354 30.9443L26.877 30.9423H26.8023L26.6813 30.9453L26.6243 30.9462L26.5338 30.9531L26.4915 30.958L26.4256 30.9708L26.3646 30.9866L26.2918 31.0436L26.2052 31.1794L26.1807 31.2295L26.1305 31.3003L26.1049 31.3318L26.0429 31.3712L26.0105 31.3869L25.9259 31.3987L25.7597 31.3938L25.6702 31.3859L25.497 31.3279L25.4567 31.3112L25.3908 31.2738L25.32 31.2128L25.2934 31.1794L25.2511 31.14L25.2295 31.1243L25.1852 31.1223L25.1616 31.1262L25.1026 31.1646L24.9807 31.2698L24.9138 31.3318L24.7711 31.4046L24.5813 31.4203L24.5488 31.4095L24.4987 31.4046L24.4761 31.4036L24.4436 31.4194L24.4298 31.4302L24.4131 31.4685L24.4033 31.5521V31.5846L24.4288 31.6476L24.4466 31.679L24.5095 31.739L24.5459 31.7695L24.6472 31.8305L24.8459 31.923L24.9059 31.9485L25.0072 31.9938L25.0534 32.0154L25.1282 32.0567L25.197 32.0971L25.26 32.1708L25.2807 32.2082L25.2531 32.2879L25.1164 32.4285L25.078 32.459L25.0377 32.5003L25.0239 32.519L25.0416 32.5387L25.0593 32.5456L25.1449 32.5476L25.3623 32.5348L25.4439 32.5289L25.5659 32.5259L25.621 32.5269L25.6948 32.5417L25.7262 32.5505L25.7616 32.5839L25.7803 32.6577V32.701L25.8148 32.8023L25.8984 32.9312L25.921 32.9538L25.9485 32.9882L25.9584 33.0039L25.9593 33.0246L25.9564 33.0335L25.9298 33.0433L25.86 33.0492H25.8167L25.7302 33.0974L25.6397 33.2135L25.6229 33.2577L25.6298 33.3394L25.6387 33.3777L25.6928 33.4426L25.7252 33.4721L25.8187 33.5125L25.9947 33.539L26.0488 33.54L26.1325 33.5961L26.1708 33.6315L26.217 33.7377L26.2348 33.7948L26.2367 33.9256L26.1787 34.1223L26.1354 34.203L26.0833 34.3771L26.0626 34.4646L26.0508 34.6426L26.0498 34.7302L26.0725 34.8974L26.0872 34.978L26.1384 35.1197L26.1669 35.1866L26.2397 35.2889L26.279 35.3341L26.3675 35.3833L26.4138 35.4L26.5121 35.3823L26.6656 35.2623L26.7098 35.2092L26.8151 35.1482L26.8692 35.1246L26.9823 35.1226L27.0374 35.1285L27.1407 35.1836L27.2646 35.3282L27.2882 35.3725L27.3157 35.4423L27.3256 35.4738L27.3226 35.5269L27.3177 35.5525L27.2843 35.5997L27.1948 35.6764L27.1603 35.702L27.1141 35.7443L27.0944 35.7639L27.0777 35.7984L27.0728 35.8151L27.0846 35.8446L27.1338 35.8869L27.1495 35.8967L27.1711 35.94L27.18 35.9646L27.1908 36.0344L27.1987 36.1102L27.1849 36.3167L27.1731 36.4259L27.122 36.6649L27.0118 37.0082L26.997 37.0436L26.9872 37.0948L26.9862 37.1174L27.0098 37.1479L27.0266 37.1597L27.0905 37.1735L27.237 37.1803H27.3305L27.4584 37.2118L27.5125 37.2325L27.5636 37.3102L27.5793 37.3564L27.5548 37.4872L27.4367 37.7489L27.3866 37.8374L27.3088 38.0292L27.2921 38.0744L27.2695 38.1551L27.2557 38.2505V38.2987L27.1997 38.4276L27.0639 38.6026L27.0197 38.642L26.9636 38.703L26.941 38.7315L26.9252 38.7846L26.9223 38.8112L26.9459 38.8751L27.0216 39.0039L27.0502 39.0482L27.0885 39.1239L27.1043 39.1603L27.117 39.2272L27.0629 39.4357L27.0226 39.5105L27.0029 39.6403L27.0649 39.8469L27.0875 39.8882L27.1121 39.9659L27.121 40.0043L27.117 40.0849L27.1121 40.1282L27.0787 40.2276L26.9951 40.4125L26.9449 40.5108L26.8446 40.682L26.821 40.7194L26.7807 40.7764L26.7374 40.8266L26.7138 40.8443L26.7315 40.9102L26.7492 40.9466L26.8397 41.04L26.8918 41.0892L27.0384 41.1954L27.3049 41.3528L27.3885 41.3971L27.5607 41.4561L27.6452 41.4817L27.7987 41.5023L27.8705 41.5072L27.9738 41.4876L28.017 41.4728L28.0426 41.4098V41.3823L28.079 41.34L28.1656 41.3105H28.1823L28.2482 41.2908L28.2856 41.278L28.382 41.2387L28.7311 41.0666L28.8531 41.0007L29.0872 40.8787L29.1403 40.8521L29.2288 40.8089L29.3213 40.7676L29.3754 40.7469L29.4757 40.6456L29.5229 40.5885L29.5938 40.4459L29.6243 40.3741L29.6488 40.2354L29.6134 40.079L29.58 40.0377L29.5751 39.959L29.6646 39.8371L29.7049 39.8036L29.7698 39.6758L29.8131 39.4603V39.4161L29.8377 39.3217L29.8534 39.2725L29.9046 39.1721L29.9607 39.0708L30.1308 38.878L30.2203 38.7876L30.422 38.6498L30.4711 38.6203L30.5695 38.582L30.7062 38.5574H30.779L30.9757 38.5151L31.2511 38.4118L31.2895 38.3921L31.4046 38.3508L31.4666 38.3302L31.6151 38.2908L32.098 38.2023L32.6646 38.1384L32.3459 37.979L32.2515 37.9328L32.1069 37.8039L32.0764 37.7715L32.0311 37.7036L31.9957 37.6053L31.9918 37.5787L32.0016 37.5039L32.0095 37.4646L32.04 37.3692L32.0754 37.2698L32.1964 37.0308L32.2633 36.9089L32.4295 36.6571L32.702 36.3108L32.76 36.2479L32.8505 36.0757L32.9115 35.8308V35.7541L32.9774 35.5997L33.1574 35.402L33.2095 35.3636L33.302 35.3125L33.3482 35.2918L33.4466 35.2721L33.4997 35.2662L33.6305 35.2751L33.8892 35.3164L33.9934 35.3371L34.1616 35.3685L34.2403 35.3823L34.3633 35.3902L34.4203 35.3892L34.5049 35.3587L34.5433 35.3371L34.5954 35.2535L34.619 35.2033L34.6456 35.0528L34.6564 34.9672L34.6652 34.7351L34.6672 34.6072L34.6633 34.2797L34.6613 34.1912L34.6574 33.9935L34.6495 33.6649L34.6446 33.4377L34.6288 33.0217L34.62 32.823L34.5984 32.4905L34.5925 32.4148L34.5807 32.2839L34.5748 32.223L34.562 32.1266L34.5561 32.0823L34.5433 32.0243L34.5246 31.9839L34.4931 31.9721L34.4567 31.8797L34.4429 31.8226V31.6515L34.4479 31.5571L34.4833 31.321L34.5767 30.9079L34.5925 30.8489L34.6436 30.7062L34.6731 30.6325L34.7459 30.4692L34.8226 30.3039L35.0115 29.9587L35.1069 29.7905L35.2948 29.5102L35.34 29.4482L35.4197 29.3518L35.52 29.2613L35.5466 29.2446L35.5879 29.1649L35.6164 29.0174V28.9662L35.6488 28.8049L35.7266 28.5561L35.7561 28.4794L35.8121 28.2738L35.8652 27.9836L35.8692 27.9433L35.8869 27.8243L35.8967 27.7613L35.9223 27.6108L36.0177 27.1269L36.0502 26.9754L36.0757 26.7384L36.0807 26.6302L36.0502 26.4738L36.0266 26.4049L35.937 26.3233L35.7325 26.2771L35.6872 26.278L35.5505 26.2584L35.3459 26.2102L35.2702 26.1866M58.2039 18.8115L58.2816 18.9098L58.4685 19.1449L58.5649 19.2659L58.7705 19.5246L58.8738 19.6535L59.0734 19.9043L59.34 20.2377L59.9134 20.9508H57.6993H55.4852V22.3053L56.0233 22.3721L56.097 22.382L56.3056 22.3967L56.4167 22.4036L56.6764 22.4125L57.4908 22.4144L58.4213 22.3898L59.5554 23.5643L60.6895 24.7377L60.6984 34.0308L55.5256 34.0564L50.3528 34.082L50.3548 35.0902V35.2682L50.3489 35.5476L50.3449 35.6754L50.3282 35.8603L50.3193 35.941L50.2928 36.0394L50.2407 36.0954L50.2328 36.0944L50.1866 36.0748L50.158 36.061L50.0764 36.0167L50.0302 35.9921L49.9161 35.9262L49.8551 35.8908L49.7134 35.8062L49.5659 35.7177L49.2069 35.4954L49.02 35.3784L48.6098 35.1167L48.4013 34.982L48.0148 34.7302L47.8289 34.6092L47.5141 34.4017L47.4413 34.3535L47.3154 34.2689L47.2554 34.2285L47.16 34.1636L47.1157 34.1331L47.0548 34.0898L47.0056 34.0515L46.9997 34.0456L46.9879 34.0043L46.982 33.9797L46.9711 33.9049L46.9652 33.8636L46.9554 33.7594L46.9505 33.7033L46.9426 33.5725L46.9338 33.4357L46.923 33.1033L46.9161 32.5466V31.1312L51.9384 31.1056L56.9607 31.08V24.778L55.5344 24.8361L55.5079 27.418L55.4823 30H51.4525V20.8525H50.0754V30.0049L48.4771 29.9774L48.2577 29.9744L47.8584 29.9616L47.6685 29.9548L47.3557 29.9371L47.2839 29.9321L47.1639 29.9233L47.1069 29.9184L47.0203 29.9076L46.981 29.9026L46.9308 29.8928L46.9033 29.8771L46.9043 29.8741L46.9062 29.8387V29.8171L46.9082 29.7423L46.9092 29.701L46.9102 29.5908L46.9111 29.5318L46.9131 29.3862V29.3105L46.9151 29.1325L46.9161 29.04L46.917 28.8325L46.918 28.7253L46.919 28.4892V28.3682L46.921 28.1056L46.922 27.8371L46.9239 27.2302L46.9249 26.9154L46.9259 26.2289L46.9269 25.8777V25.1282L46.9279 23.9508V18.0984H57.6403M30.7593 3.26755L30.8046 3.28132L30.958 3.32952L31.0436 3.35706L31.2738 3.43083L31.3987 3.47017L31.7016 3.56853L31.862 3.62066L32.2338 3.74066L32.4275 3.8046L32.8643 3.94624L33.0895 4.02001L33.5862 4.1823L33.841 4.26591L34.3938 4.44689L34.6761 4.53935L35.28 4.73706L35.5879 4.83837L36.239 5.05181L36.5705 5.16099L37.2649 5.38919L37.617 5.50526L38.3498 5.74624L38.7216 5.86821L39.4888 6.12198L39.8774 6.24886L40.6751 6.51247L43.1626 7.33378L43.4774 7.43706L44.0833 7.63771L44.3833 7.73706L44.9607 7.92788L45.2449 8.0223L45.7938 8.20427L46.0643 8.29378L46.5856 8.46591L46.8423 8.55149L47.3361 8.71476L47.579 8.79542L48.0462 8.95083L48.2764 9.02755L48.717 9.17411L48.9344 9.24689L49.3505 9.38558L49.7597 9.5223L50.5062 9.77214L50.8672 9.89312L51.5223 10.1135L51.838 10.2197L52.4056 10.4125L52.679 10.5049L53.1649 10.6721L53.399 10.7528L53.8092 10.8954L54.0059 10.9643L54.3452 11.0843L54.5075 11.1423L54.782 11.2426L54.9118 11.2908L55.1272 11.3735L55.2275 11.4118L55.3889 11.4777L55.4636 11.5092L55.5757 11.5594L55.6259 11.5839L55.6948 11.6223L55.7557 11.6666L55.8305 11.7502L55.922 11.9459L55.9771 12.2951V12.3915L55.979 12.5469L55.9751 12.5843L55.9495 12.658L55.9328 12.6944L55.8708 12.7692L55.8334 12.8076L55.7203 12.8912L55.6554 12.9335L55.4774 13.0298L55.378 13.081L55.1193 13.1961L54.9787 13.2561L54.6256 13.3967L54.5311 13.4331L54.3207 13.5118L54.2125 13.5531L53.9744 13.6397L53.8515 13.6849L53.583 13.7803L53.4443 13.8295L53.1433 13.9348L52.9889 13.9889L52.6534 14.1049L52.4823 14.1639L52.1115 14.2898L51.9216 14.3548L51.5134 14.4925L51.3039 14.5633L50.8564 14.7138L50.6272 14.7905L50.1384 14.9538L49.8885 15.0364L49.3574 15.2135L49.0849 15.3039L48.5085 15.4957L48.2144 15.5931L47.5918 15.7987L47.2741 15.9039L46.6023 16.1262L46.26 16.2394L45.538 16.4784L45.1702 16.5994L44.3961 16.8551L43.1754 17.2584L42.3256 17.5397L40.6898 18.0797L40.2875 18.2125L39.5046 18.4702L39.117 18.598L38.3656 18.8449L37.9948 18.9669L37.2807 19.202L36.9285 19.318L36.2548 19.5394L35.9243 19.6476L35.2957 19.8541L34.9869 19.9544L34.4085 20.1443L34.1252 20.2367L33.6 20.4079L33.3443 20.4915L32.877 20.6439L32.6508 20.7177L32.2456 20.8495L32.0508 20.9125L31.7115 21.0217L31.5511 21.0738L31.2826 21.1594L31.1577 21.1997L30.9649 21.2607L30.8774 21.2882L30.7633 21.3226L30.6866 21.3443H30.6777L30.6088 21.3266L30.5666 21.3157L30.4338 21.2764L30.36 21.2548L30.1682 21.1948L30.0649 21.1633L29.818 21.0846L29.6882 21.0433L29.3902 20.9479L29.2357 20.8987L28.8915 20.7876L28.7134 20.7295L28.3279 20.6036L28.1302 20.5397L27.7062 20.401L27.4898 20.3302L27.0334 20.1797L26.8013 20.1039L26.3154 19.9436L25.8236 19.7813L24.7721 19.4331L24.238 19.2561L23.1275 18.8862L22.5688 18.7003L21.4357 18.3217L20.8702 18.1328L19.7498 17.7571L19.1941 17.5702L18.12 17.2082L17.5928 17.0312L16.6013 16.6948L16.3603 16.6131L15.9 16.4567L15.6728 16.38L15.2449 16.2335L15.0354 16.1626L14.6449 16.0279L14.4541 15.963L14.1049 15.842L13.9357 15.7839L13.6318 15.6787L13.4852 15.6276L13.2315 15.538L13.1115 15.4957L12.9128 15.4249L12.8203 15.3915L12.6797 15.3394L12.6177 15.3157L12.541 15.2853L12.5016 15.2626L12.5115 15.2597L12.5921 15.2321L12.6423 15.2154L12.7947 15.1643L12.8803 15.1357L13.0967 15.063L13.2128 15.0246L13.4852 14.9331L13.6279 14.8859L13.9466 14.7787L14.1108 14.7246L14.4688 14.6046L14.6508 14.5436L15.0384 14.4148L15.6423 14.2141L15.8498 14.1453L16.2482 14.0095L16.4449 13.9426L16.8157 13.8138L16.9977 13.7498L17.3331 13.6298L17.4954 13.5718L17.7875 13.4646L17.9272 13.4125L18.1672 13.321L18.2793 13.2767L18.4584 13.203L18.54 13.1685L18.6511 13.1164L18.7308 13.0662L18.7633 13.0151L18.7829 12.8784L18.7869 12.8085L18.7564 12.661L18.7367 12.5892L18.6659 12.4662L18.5272 12.3482L18.5134 12.3433L18.419 12.3571L18.36 12.3679L18.178 12.4121L18.0767 12.4377L17.8131 12.5115L17.6725 12.5518L17.3321 12.6521L17.1531 12.7062L16.742 12.8321L16.5275 12.899L16.0505 13.0495L15.8036 13.1282L15.2656 13.3023L14.3951 13.5866L10.4361 14.8918V20.5466L10.738 20.7236L10.8423 20.7856L11.0184 20.939L11.1 21.0197L11.2318 21.2056L11.2918 21.301L11.3774 21.5095L11.4147 21.6157L11.4531 21.838L11.4669 21.9492L11.457 22.1754L11.4462 22.2876L11.3882 22.5079L11.3528 22.6161L11.2446 22.8217L11.0243 23.102L10.9367 23.1895L10.8226 23.3666L10.7754 23.458L10.739 23.6597L10.7311 23.7659L10.7725 24.0157L10.7872 24.0816L10.8315 24.2272L10.918 24.4672L10.9584 24.5705L11.0449 24.8292L11.0892 24.9659L11.1806 25.2826L11.2259 25.4469L11.3174 25.8059L11.3636 25.9889L11.4531 26.3735L11.5406 26.762L11.6931 27.5498L11.7275 27.7426L11.7875 28.1105L11.8584 28.623L11.8662 28.6908L11.8829 28.8502L11.8908 28.9348L11.9075 29.1236L11.9243 29.3184L11.9577 29.7708L11.9911 30.2371L12.0472 31.2423L12.06 31.4862L12.0797 31.9348L12.0846 32.043L12.0915 32.2417L12.0944 32.338L12.0993 32.5102L12.1013 32.5928L12.1033 32.7335V32.7994L12.1023 32.9026L12.1013 32.9489L12.0974 33.0089L12.0866 33.0453L12.0826 33.0443L12.0502 33.0217L12.0305 33.0069L11.9725 32.9607L11.9085 32.9105L11.7354 32.7649L11.6302 32.6744L11.401 32.5338L11.282 32.4698L11.0125 32.3784L10.8708 32.338L10.5443 32.2898L9.96983 32.2623H9.78393L9.43967 32.2938L9.27147 32.3144L8.96163 32.3872L8.81114 32.4295L8.53475 32.5456L8.15311 32.7689L7.85016 32.9843L7.90917 31.0741L7.91901 30.7476L7.95049 30.1269L7.96819 29.821L8.01442 29.2367L8.03999 28.9485L8.10393 28.3958L8.13737 28.1223L8.21901 27.5951L8.2613 27.3335L8.36065 26.8269L8.41278 26.5751L8.53081 26.0843L8.96262 24.6394L9.00294 24.5233L9.06786 24.3236L9.09737 24.2292L9.14163 24.0649L9.1613 23.9872L9.1859 23.8535L9.19573 23.7895L9.19868 23.6784L9.1977 23.5712L9.13278 23.3961L8.94196 23.1394L8.85049 23.041L8.71376 22.8649L8.6518 22.7784L8.56819 22.6092L8.5318 22.5226L8.49147 22.3367L8.46885 22.0151V21.8882L8.51901 21.6394L8.55147 21.5174L8.65967 21.2912L8.72065 21.182L8.87803 20.9941L9.15835 20.7728L9.45147 20.6066L9.45245 14.3774L7.63573 13.7715L7.38983 13.6898L6.9718 13.5443L6.77409 13.4744L6.44557 13.3485L6.29016 13.2876L6.04032 13.1744L5.92327 13.1184L5.7413 13.0121L5.65868 12.959L5.53573 12.8528L5.48065 12.7987L5.40688 12.6866L5.37442 12.6285L5.33999 12.5036L5.3213 12.2951V12.2203L5.33999 12.0876L5.35376 12.0226L5.40589 11.9046L5.43737 11.8476L5.53376 11.7394L5.58786 11.6862L5.73835 11.582L5.81999 11.5289L6.03344 11.4216L6.14852 11.3666L6.43376 11.2505L6.58622 11.1905L6.95409 11.0587L7.60917 10.8374L7.67114 10.8167L7.84721 10.7587L7.9436 10.7272L8.18557 10.6476L8.3154 10.6043L8.61934 10.5039L8.77868 10.4518L9.14163 10.3318L9.3295 10.2698L9.74557 10.1321L9.95999 10.0613L10.4252 9.90788L10.6633 9.82919L11.1738 9.66001L11.4344 9.57444L11.9862 9.39247L12.2666 9.29903L12.8547 9.10526L13.1538 9.00689L13.7744 8.80132L14.0882 8.69706L14.7374 8.48263L15.0649 8.37444L15.7377 8.15214L16.4164 7.92788L17.8269 7.46165L19.9908 6.74657L20.7187 6.50558L22.1193 6.04329L22.4636 5.92919L23.1344 5.70886L23.4669 5.5987L24.1092 5.38722L24.4269 5.28296L25.0387 5.08132L25.3407 4.98198L25.917 4.79312L26.2013 4.69968L26.7393 4.52263L27.0029 4.43706L27.4987 4.27378L27.7407 4.19509L28.1911 4.04755L28.4095 3.97673L28.8098 3.84591L29.0036 3.78296L29.3508 3.66985L29.517 3.61575L29.8072 3.5223L29.9449 3.47804L30.1741 3.40427L30.2813 3.36984L30.4466 3.31771L30.5203 3.29411L30.6177 3.26362L30.6836 3.24591H30.6875M70.7803 18.1053L72.7977 20.9016L71.7649 20.9292L70.7312 20.9577V30.0039L68.8377 29.9774L66.9443 29.9508L66.8931 20.9508H65.518V30H62.2721V18.0984M91.9485 18.122L96.1407 18.1476L97.0033 19.4754L97.1213 19.6584L97.3387 19.9967L97.442 20.159L97.6141 20.4344L97.6535 20.4984L97.7203 20.6085L97.7518 20.6597L97.801 20.7433L97.8236 20.7817L97.8531 20.8348L97.8718 20.8771L97.8728 20.882L97.8521 20.8918L97.8393 20.8967L97.7931 20.9056L97.741 20.9144L97.5738 20.9292L97.4803 20.9361L97.2462 20.9449L96.8459 20.9508H95.8131V30H92.1758L92.1502 25.5L92.1246 21H90.8459L90.7948 30H85.8787L84.059 28.6092L82.2393 27.2194V20.9508H76.8295V22.2295H79.6367L80.5938 23.1905L81.5508 24.1515V30L77.3705 29.9971L76.2393 29.219L76.0839 29.1128L75.7456 28.8797L75.5754 28.7626L75.238 28.5295L75.0738 28.4154L74.7767 28.2098L74.7069 28.1616L74.581 28.0751L74.4197 27.963L73.7312 27.4839L73.68 18.0984H86.1807L86.939 18.7466L87.6984 19.3948L87.7279 18.7456L87.7564 18.0964M76.8295 24.7869V25.9131L77.4905 26.579L77.582 26.6715L77.7521 26.8387L77.8338 26.9184L77.9734 27.0502L78.0374 27.1102L78.1318 27.1938L78.2036 27.2459H78.2076L78.2134 27.2213L78.2164 27.2046L78.2213 27.1495L78.2262 27.0866L78.2321 26.8849L78.2331 26.7738V26.4944L78.2321 26.3469L78.2253 26.0164L78.1957 24.7869M85.4921 23.8721L85.499 26.0164L86.1069 26.5279L86.1905 26.5977L86.3528 26.7266L86.4315 26.7876L86.5721 26.8898L86.638 26.9371L86.7423 27.002L86.8377 27.0443H86.8495L86.8702 27.0217L86.88 27.0059L86.8967 26.9459L86.9046 26.9115L86.9184 26.8102L86.9243 26.7541L86.9351 26.6056L86.939 26.5259L86.9469 26.3262L86.9498 26.219L86.9548 25.9623L86.9567 25.8266L86.9597 25.5089L86.9607 25.3417V24.9561V22.863L86.223 22.2944L85.4853 21.7269M87.059 16.7213H83.3213V13.082H87.059V16.7213Z" fill="#2F4342"/>
<path d="M30.0216 69.3256L29.9233 69.2557L29.6636 69.0954L29.5249 69.0118L29.2003 68.8308L29.0311 68.7393L28.6593 68.5475L28.4695 68.4511L28.0702 68.2584L27.6669 68.0656L26.8564 67.7134L26.6587 67.6308L26.2869 67.4852L25.7803 67.3033L25.2452 67.1272L24.1859 66.8518L23.6577 66.7269L22.6072 66.5557L22.082 66.4829L21.0324 66.4161L20.7698 66.4052L20.2436 66.4043L19.981 66.4072L19.4538 66.4328L19.1892 66.4485L18.659 66.4997L18.3934 66.5292L17.8593 66.6069L17.5928 66.6492L17.0547 66.7525L16.7852 66.8085L16.2423 66.9383L15.9698 67.0072L15.421 67.1636L15.1456 67.2452L14.5908 67.4292L14.3115 67.5236L13.7488 67.7331L12.8951 68.0784L12.7397 68.1442L12.4436 68.2643L12.3 68.3213L12.0492 68.4167L11.9321 68.46L11.7551 68.52L11.7177 68.5318L11.6597 68.5475L11.6036 68.5574H11.5426L11.4452 68.517L11.399 68.4895L11.3243 68.3793L11.2898 68.3144L11.2288 68.1167L11.2141 68.0606L11.1856 67.9298L11.1423 67.7006L11.1285 67.617L11.0813 67.4154L11.0557 67.3111L10.9918 67.0879L10.9584 66.9767L10.8856 66.7603L10.7754 66.4711L10.7341 66.3728L10.6633 66.1967L10.6298 66.1121L10.5757 65.9646L10.5511 65.8928L10.5138 65.7698L10.497 65.7108L10.4754 65.6105L10.4587 65.5141L10.4695 65.3793L10.5511 65.2397L10.56 65.2328L10.6062 65.2141L10.6328 65.2042L10.7115 65.1816L10.7538 65.1698L10.861 65.1443L10.917 65.1305L11.0488 65.1029L11.1856 65.0744L11.5151 65.0144L12.06 64.9259L12.4397 64.8698L13.1882 64.7744L13.56 64.7302L14.2918 64.6593L14.6557 64.6269L15.3708 64.5806L15.7259 64.56L16.4233 64.5364L16.7705 64.5285L17.4502 64.5295L17.7875 64.5324L18.4495 64.557L18.778 64.5728L19.4213 64.621L19.741 64.6485L20.3656 64.7203L20.6764 64.7597L21.2813 64.8561L21.5823 64.9062L22.1685 65.0262L22.4587 65.0892L23.0252 65.2318L23.3065 65.3065L23.8524 65.4738L24.1229 65.5593L24.6492 65.7502L24.9088 65.8485L25.4134 66.062L25.6633 66.1711L26.1472 66.4092L26.8485 66.7908L26.9213 66.8331L27.0482 66.902L27.1082 66.9334L27.2016 66.9767L27.2429 66.9944L27.2941 67.0082L27.3098 66.9915L27.3029 66.9806L27.2656 66.9462L27.2429 66.9275L27.177 66.8783L27.1406 66.8518L27.0482 66.7898L26.999 66.7564L26.8849 66.6836L26.7649 66.6069L26.4728 66.4298L26.3193 66.3374L25.979 66.1397L25.6318 65.938L24.9039 65.5397L24.7288 65.4443L24.4013 65.2751L23.9724 65.0636L23.7482 64.9583L23.281 64.7597L23.0449 64.6613L22.56 64.4774L22.0692 64.2974L21.0482 63.9875L20.5338 63.842L19.4852 63.6069L17.9144 63.3492L17.7944 63.3344L17.4885 63.3098L17.3262 63.298L16.9524 63.2803L16.7597 63.2725L16.3426 63.2626L16.1311 63.2577L15.6954 63.2538H15.478L15.0462 63.2567L14.8338 63.2597L14.4315 63.2705L14.2367 63.2774L13.8875 63.2951L13.4488 63.3315L13.3338 63.3443L13.14 63.359L13.0485 63.3639L12.898 63.36L12.8282 63.3551L12.717 63.3275L12.6649 63.3098L12.5852 63.2518L12.5488 63.2183L12.4957 63.1249L12.4721 63.0738L12.4387 62.94L12.4249 62.8672L12.4062 62.6872L12.3885 62.3606L12.3846 62.2269L12.3797 62.0075L12.3787 61.9043L12.3895 61.74L12.3974 61.6633L12.4318 61.5443L12.4534 61.4902L12.5223 61.4085L12.5626 61.3711L12.6757 61.318L12.7387 61.2944L12.9049 61.26L12.9954 61.2443L13.2256 61.2206L13.6515 61.1872L14.0223 61.1597L14.758 61.141L15.1259 61.139L15.8557 61.1705L16.2206 61.1921L16.9456 61.2728L17.3065 61.319L18.0275 61.4498L18.3865 61.5216L19.1036 61.7016L19.4616 61.798L20.1747 62.0282L20.5308 62.1492L21.242 62.4295L22.3052 62.9056L22.5954 63.0462L23.1551 63.3393L23.4315 63.4888L23.9715 63.8056L24.239 63.9659L24.7652 64.3092L25.0269 64.4843L25.5452 64.859L25.8049 65.0508L26.3223 65.4629L26.582 65.6734L27.1062 66.1269L27.3688 66.359L27.9049 66.8587L28.7302 67.6642L28.8285 67.7636L29.0056 67.9406L29.0911 68.0252L29.2436 68.1747L29.3174 68.2466L29.4443 68.3695L29.5052 68.4275L29.6075 68.5229L29.6557 68.5682L29.7334 68.637L29.7688 68.6685L29.821 68.7118L29.8446 68.7295L29.8721 68.7462L29.8829 68.7511L29.8859 68.7413L29.8839 68.7325L29.8623 68.697L29.8475 68.6764L29.8013 68.6144L29.7747 68.58L29.7029 68.4925L29.6646 68.4452L29.5682 68.3331L29.517 68.2731L29.3961 68.1344L29.3321 68.0616L29.1865 67.8983L29.1108 67.8138L28.9406 67.6249L28.6583 67.3131L28.4203 67.0524L27.9354 66.5498L27.6905 66.302L27.1938 65.8239L26.9439 65.5879L26.4354 65.1354L26.1806 64.9131L25.6623 64.4862L25.4026 64.2767L24.8754 63.8764L24.6118 63.6797L24.0777 63.3069L23.8092 63.1249L23.2682 62.7797L22.9977 62.6105L22.4518 62.2947L22.1774 62.1403L21.6275 61.8531L21.3511 61.7124L20.7974 61.4547L20.52 61.3298L19.9643 61.1026L19.6859 60.9934L19.1282 60.7967L18.8498 60.7023L18.2921 60.537L18.0138 60.4583L17.457 60.3256L17.1797 60.2636L16.6249 60.1633L15.7967 60.0502L15.6816 60.0384L15.4829 60.0157L15.3885 60.0039L15.2292 59.9823L15.1544 59.9715L15.0295 59.9498L14.9705 59.939L14.8751 59.9154L14.7865 59.8908L14.6774 59.8338L14.578 59.7216L14.5633 59.6931L14.5485 59.5997L14.5436 59.5475L14.5475 59.4187L14.5554 59.2839L14.6134 58.9672L14.6469 58.8098L14.7374 58.5344L14.761 58.4734L14.8111 58.379L14.8849 58.2915L14.9124 58.2738L15.0393 58.262L15.1131 58.26L15.3226 58.2767L15.4357 58.2885L15.7111 58.3298L15.8557 58.3544L16.1833 58.4183L16.3524 58.4528L16.7183 58.5364L16.9043 58.5806L17.2918 58.68L18.4711 59.0262L18.7426 59.1147L19.2787 59.3105L19.5462 59.4108L20.0724 59.6321L20.3341 59.7452L20.8515 59.9911L21.1082 60.117L21.6157 60.3875L21.8675 60.5262L22.3652 60.8213L22.6121 60.9728L23.099 61.2924L23.342 61.4557L23.818 61.801L24.0561 61.9761L24.5223 62.3459L24.7544 62.5338L25.2108 62.9272L25.437 63.1269L25.8836 63.5459L26.1049 63.7574L26.5397 64.2L26.7561 64.4242L27.181 64.8915L27.3915 65.1275L27.8056 65.6183L28.0111 65.8672L28.4134 66.3816L28.6141 66.6423L29.0056 67.1813L29.581 68.0164L29.6538 68.1265L29.7865 68.3262L29.8505 68.4236L29.9656 68.5987L30.0216 68.6833L30.12 68.8347L30.1662 68.9085L30.2479 69.0374L30.2872 69.0984L30.3521 69.2056L30.3826 69.2567L30.4328 69.3433L30.478 69.4249L30.5223 69.5302L30.537 69.5734L30.5223 69.6098L30.5075 69.6197L30.4357 69.5941L30.3934 69.5744L30.2675 69.4947L30.1987 69.4495M30.7967 69.542V69.5361L30.8144 69.4987L30.8262 69.4751L30.8656 69.4062L30.8872 69.3679L30.9452 69.2705L30.9767 69.2183L31.0515 69.0974L31.1302 68.9705L31.3279 68.6626L31.6643 68.1472L31.8895 67.8059L32.3508 67.1518L32.5829 66.8282L33.058 66.2075L33.298 65.9016L33.7859 65.3164L34.0328 65.0282L34.5354 64.4764L34.7882 64.2049L35.3056 63.6885L35.5652 63.4347L36.0964 62.9518L36.3629 62.7157L36.9079 62.2672L37.1823 62.0479L37.742 61.6338L38.0233 61.4311L38.5967 61.0525L38.8849 60.8665L39.4731 60.5213L39.7692 60.3531L40.3711 60.0423L40.6741 59.8908L41.2908 59.6144L41.6006 59.4806L42.2321 59.2377L42.5498 59.1206L43.1961 58.9121L43.5206 58.8118L44.1816 58.6367L45.1888 58.4124L45.3315 58.3849L45.5665 58.3397L45.6767 58.319L45.8538 58.2865L45.9364 58.2728L46.0652 58.2541L46.1252 58.2472L46.2167 58.2413L46.259 58.2403L46.3229 58.2482L46.3524 58.2541L46.3997 58.2738L46.5236 58.381L46.5551 58.4134L46.6111 58.5108L46.6377 58.5629L46.6829 58.6898L46.7252 58.8226L46.7734 59.1265L46.7902 59.277L46.7793 59.5456L46.7724 59.6056L46.7459 59.7029L46.6849 59.8003L46.6652 59.817L46.5688 59.8544L46.5128 59.8731L46.3583 59.9124L46.2767 59.9321L46.0839 59.9675L45.7761 60.0138L45.4731 60.0511L44.8731 60.1475L44.5741 60.1987L43.98 60.3246L43.6829 60.3915L43.0957 60.5469L42.8026 60.6285L42.2223 60.8134L41.9321 60.9088L41.3587 61.1233L41.0724 61.2334L40.5049 61.4764L40.2226 61.6013L39.6629 61.8738L39.3836 62.0134L38.8318 62.3134L38.5564 62.4679L38.0115 62.7974L37.74 62.9656L37.2039 63.3236L36.9364 63.5065L36.4072 63.8931L36.1436 64.0898L35.6233 64.5049L35.3646 64.7164L34.8521 65.16L34.5974 65.3852L34.0938 65.8564L33.8429 66.0964L33.3482 66.5961L32.6164 67.377L32.521 67.4833L32.3469 67.677L32.2623 67.7705L32.1118 67.9387L32.04 68.0203L31.9131 68.1639L31.8531 68.2328L31.7498 68.3518L31.7016 68.4088L31.6229 68.5023L31.5856 68.5465L31.5305 68.6154L31.5059 68.6469L31.4744 68.6911L31.4616 68.7098L31.4538 68.7285L31.4528 68.7344L31.4685 68.7285L31.4793 68.7216L31.5187 68.6911L31.5423 68.6715L31.6052 68.6154L31.6397 68.5839L31.7272 68.5013L31.7744 68.458L31.8846 68.3508L31.9436 68.2938L32.0783 68.161L32.1492 68.0921L32.3075 67.9338L32.5721 67.6682L32.8229 67.4164L33.3265 66.9334L33.5783 66.6964L34.0829 66.2439L34.3357 66.0216L34.8423 65.5997L35.0961 65.3921L35.6065 64.9997L35.8613 64.8069L36.3738 64.4449L36.6305 64.2669L37.1469 63.9334L37.4046 63.7702L37.9249 63.4662L38.1846 63.3177L38.7088 63.0433L38.9705 62.9085L39.4987 62.6626L39.7633 62.5436L40.2964 62.3252L40.5629 62.221L41.101 62.0311L41.3705 61.9406L41.9144 61.7803L42.1869 61.7026L42.7357 61.5708L43.0111 61.5079L43.5669 61.4026L43.8462 61.3544L44.4079 61.2777L45.2597 61.1931L45.4298 61.1803L45.7947 61.1636L45.9806 61.1577L46.3623 61.1528L46.7449 61.1498L47.4767 61.1754L47.6518 61.1842L47.9685 61.2079L48.12 61.2197L48.3767 61.2511L48.4967 61.2679L48.6757 61.3052L48.7141 61.3151L48.7741 61.3357L48.8351 61.3682L48.8616 61.3898L48.9 61.4626L48.9157 61.5039L48.9344 61.6298L48.9413 61.7006L48.9423 61.8964L48.9246 62.2908L48.9167 62.4206L48.898 62.637L48.8872 62.7393L48.8597 62.9046L48.8439 62.9823L48.8016 63.1023L48.778 63.1583L48.717 63.239L48.6826 63.2744L48.597 63.3216L48.5498 63.3413L48.4338 63.36L48.3718 63.3659L48.2203 63.361L47.9479 63.3344L47.8928 63.3275L47.761 63.3147L47.6921 63.3088L47.5367 63.299L47.3754 63.2882L46.9938 63.2744L46.7951 63.2675L46.3623 63.2606L46.142 63.2577L45.6856 63.2567L45.4574 63.2577L45.0059 63.2646L44.7836 63.2685L44.3675 63.2823L44.1659 63.2902L43.8128 63.3108L43.3839 63.3492L43.0603 63.3895L42.4141 63.4938L42.0915 63.5498L41.4492 63.6856L41.1295 63.7574L40.4941 63.9246L40.1774 64.0111L39.5508 64.2069L39.239 64.3092L38.6242 64.5334L38.3183 64.6495L37.7183 64.9023L37.4203 65.0331L36.838 65.3125L35.9852 65.7629L35.7826 65.8761L35.3252 66.1456L35.0951 66.2823L34.6613 66.5488L34.559 66.6128L34.377 66.7288L34.2905 66.7839L34.1488 66.8774L34.0849 66.9206L33.9983 66.9826L33.9443 67.0328V67.0347L33.9688 67.0259L33.9846 67.02L34.0397 66.9954L34.0702 66.9816L34.1508 66.9433L34.1941 66.9236L34.2983 66.8734L34.4075 66.8203L34.681 66.6856L35.1492 66.4515L35.5033 66.2724L36.2252 65.9547L36.5882 65.8023L37.3328 65.5347L37.7085 65.4079L38.4816 65.1915L38.8721 65.0892L39.6787 64.922L40.0859 64.8443L40.9308 64.7252L41.3587 64.6711L42.2479 64.5993L42.6974 64.5698L43.6347 64.5443L45.1023 64.557L45.6974 64.5757L46.9436 64.6593L47.2515 64.6829L47.8495 64.738L48.1436 64.7675L48.6954 64.8305L48.9639 64.8629L49.4449 64.9308L49.56 64.9485L49.7724 64.9829L49.8747 65.0006L50.0606 65.0351L50.1502 65.0528L50.3065 65.0872L50.3803 65.1049L50.5042 65.1383L50.5623 65.1561L50.6508 65.1885L50.7393 65.2377L50.7846 65.2731L50.8347 65.3793L50.8544 65.4374L50.8524 65.5879L50.8456 65.6685L50.7924 65.8613L50.6547 66.1967L50.6252 66.2557L50.5564 66.4338L50.521 66.5302L50.4433 66.7613L50.2288 67.5128L50.1993 67.6357L50.1423 67.8443L50.1147 67.9436L50.0606 68.1059L50.0331 68.1816L49.979 68.3016L49.9515 68.3567L49.8924 68.4374L49.8629 68.4738L49.798 68.519L49.7646 68.5377L49.6898 68.5505L49.6505 68.5544L49.5629 68.5397L49.4144 68.4905L49.3947 68.4826L49.3347 68.458L49.3013 68.4442L49.2138 68.4079L49.1213 68.3695L48.8724 68.2672L48.7397 68.2121L48.4357 68.0862L47.9528 67.8865L47.6724 67.7705L47.1236 67.561L46.8511 67.4606L46.3151 67.2806L46.0475 67.1931L45.5183 67.0416L45.2547 66.9688L44.7275 66.8429L44.4639 66.7839L43.9338 66.6846L43.6682 66.6383L43.1311 66.5636L42.8616 66.5292L42.3118 66.478L41.4688 66.4269L41.0557 66.4102L40.2324 66.4239L39.8213 66.4397L39.002 66.5174L38.5928 66.5636L37.7774 66.7052L37.3692 66.7839L36.5567 66.9895L36.1505 67.0997L35.34 67.3692L34.9357 67.5118L34.1272 67.8452L33.7229 68.0203L32.9164 68.4177L31.7065 69.0865L31.5816 69.1613L31.3534 69.2902L31.2442 69.3502L31.0643 69.4436L30.9816 69.4849L30.8685 69.5321L30.8459 69.541L30.8154 69.5479L30.8036 69.5498M62.0016 48.7643L60.8951 48.0669V47.099V46.1311H64.9279H68.9606V44.0656V42H68.4688H67.977V43.7213V45.4426H65.7718H63.5656L62.2308 44.5584L60.8951 43.6751V42.001V40.3279H61.6328H62.3705V38.9508V37.5738L65.9361 37.5777L69.5016 37.5816L70.141 38.4797L70.2285 38.6036L70.3908 38.8328L70.4685 38.9429L70.5993 39.1308L70.6603 39.2174L70.7449 39.3423L70.7626 39.3679L70.7872 39.4052L70.8049 39.4347L70.8069 39.4387L70.7813 39.4456L70.7636 39.4485L70.7026 39.4544L70.6672 39.4574L70.5747 39.4613L70.5246 39.4633L70.4036 39.4662L70.2767 39.4692H69.9551L69.4033 39.4623L67.977 39.4328V39.8803V40.3279L68.9361 40.3308L69.8951 40.3328L70.6082 41.1088L71.3213 41.8849V44.9429V48H67.2885H63.2557V48.7377V48.839L63.2498 49.0239L63.2459 49.1115L63.2341 49.257L63.2272 49.3229L63.2105 49.4134L63.182 49.4685L63.177 49.4675L63.1446 49.4528L63.1249 49.4429L63.0659 49.4105L63.0334 49.3928L62.9508 49.3456L62.9075 49.32L62.8052 49.259L62.698 49.1951L62.4374 49.0357L62.3006 48.9521M65.4688 42.8361V42.0492L64.3623 42.0216L63.2557 41.9931V42.4269V42.5292L63.2685 42.6767L63.2793 42.7446L63.3325 42.8567L63.3669 42.9118L63.4869 43.0308L63.5233 43.0633L63.6108 43.1361L63.7721 43.2629L63.8331 43.3102L63.9364 43.3888L63.9856 43.4262L64.0721 43.4852L64.1547 43.5403L64.2993 43.6033L64.3731 43.6288L64.5403 43.6465L64.5856 43.6495H64.6918L64.8787 43.6446L65.4688 43.6229V42.8361ZM65.4197 39.9344V39.541H65.0262H64.6328V39.9344V40.3279H65.0262H65.4197V39.9344ZM49.3131 46.5167L47.4197 45.239V41.4069V37.5738H48.6H49.7803L49.7823 41.0902L49.7843 44.6065L50.7944 45.2705L51.8056 45.9344H53.1049H54.4033V45.6885V45.6315L54.3915 45.5547L54.3816 45.5213L54.3334 45.481L54.3029 45.4643L54.1977 45.4495L53.9518 45.4426H53.8475L53.6705 45.417L53.6252 45.4062L53.5288 45.3718L53.4787 45.3521L53.3656 45.2941L53.3056 45.2616L53.1639 45.1761L53.0892 45.1288L52.9102 45.0079L52.8157 44.942L52.5885 44.7816L52.1813 44.4895L50.8623 43.5354V40.5551V37.5738H52.0406H53.22L53.2456 40.2393L53.2721 42.9049L53.6842 43.2029L53.7747 43.2688L53.9243 43.3731L53.9941 43.4184L54.1043 43.4636L54.1554 43.4764L54.2321 43.442L54.2498 43.4272L54.2793 43.378L54.2941 43.3505L54.3177 43.2738L54.3285 43.2324L54.3462 43.1252L54.3551 43.0672L54.3679 42.9275L54.3738 42.8528L54.3836 42.6757L54.3875 42.5833L54.3934 42.3679L54.3964 42.2547L54.3993 41.998L54.4013 41.8643L54.4023 41.5623L54.4033 41.4059V41.0577V40.4783V37.5738H56.4147H58.4262L59.3154 38.582L60.2056 39.5902V42.5164L60.2065 45.4426H58.4852H56.7639V46.6229V47.8033L53.9852 47.7993L51.2065 47.7944L49.3131 46.5167ZM57.7249 41.5328L57.7515 39.6393H57.2577H56.7639V41.5013V41.6174V41.8279V41.9292V42.1131L56.7649 42.2911L56.7679 42.5744L56.7688 42.7052L56.7757 42.9069L56.7797 42.9983L56.7924 43.1321L56.7993 43.1921L56.818 43.2738L56.8288 43.3092L56.8574 43.3515L56.9852 43.4075L57.0462 43.4203L57.2134 43.4361L57.4524 43.439L57.6983 43.4262L57.7249 41.5328ZM73.2649 44.577L72.0118 43.7213L72.0108 40.6475L72.0098 37.5738H75.0885H78.1662L79.4656 38.9626L80.7639 40.3515V41.9626V43.5738H81.2557H81.7475V41.5574V39.541H81.2065H80.6656V38.5574V37.5738L81.6738 37.5787L82.682 37.5826L83.3951 38.4108L84.1082 39.239V42.3413V45.4426H82.1036H80.1L79.1577 44.6803L78.2164 43.918L78.2115 42.362L78.2065 40.8059L77.641 40.1734L77.0754 39.541H75.5695H74.0636L74.0941 39.9098L74.1246 40.2787L75.0216 40.3072L75.9187 40.3347L76.5708 41.0105L77.2229 41.6862V43.5639V45.4426L75.8705 45.4377L74.518 45.4338L73.2649 44.577ZM75.059 42.7869V42H74.5672H74.0754V42.3649V42.4397L74.0931 42.5646L74.1049 42.6256L74.1561 42.7416L74.1865 42.7997L74.2829 42.9265L74.4895 43.1518L74.5465 43.2098L74.6557 43.3161L74.7098 43.3662L74.8042 43.4498L74.8495 43.4882L74.9184 43.5403L74.9813 43.5738H74.9921L75.0118 43.5118L75.0206 43.4715L75.0364 43.3426L75.0433 43.2708L75.0531 43.0928L75.057 42.9983M86.1482 44.4836L84.8921 43.5384L84.9187 40.5806L84.9443 37.6229L88.2856 37.5974L91.6269 37.5708L92.8839 38.8249L94.141 40.079V41.7777V43.4754H94.6328H95.1246V40.5246V37.5738H96.3551H97.5856L97.56 41.4836L97.5344 45.3934L94.5836 45.418L91.6328 45.4426L90.962 44.4836L90.2911 43.5246L90.9865 43.4961L91.682 43.4665L91.678 42.0698L91.6731 40.6721L91.0997 40.0574L90.5262 39.4426H88.8423H87.1574V39.8361V40.2295H87.9865H88.8157L89.4679 40.9426L90.119 41.6557V43.5246L90.118 45.3934L88.7606 45.4121L87.4033 45.4298L86.1482 44.4836ZM87.9443 42.6885V41.9016H87.5508H87.1574V42.3157V42.4013L87.1721 42.54L87.182 42.6059L87.2262 42.722L87.2528 42.779L87.3364 42.897L87.5213 43.1026L87.5715 43.1538L87.6649 43.2472L87.7102 43.2915L87.7879 43.3662L87.8233 43.3997L87.8754 43.4459L87.9147 43.4754H87.9187L87.9265 43.4134L87.9295 43.3731L87.9354 43.2443L87.9383 43.1724L87.9423 42.9944L87.9433 42.9M99.6226 44.5928L98.3705 43.738V40.6554V37.5738H102.479H106.587L107.102 38.0243L107.616 38.4747V38.0243V37.5738H110.37H113.125L113.71 38.4836L114.296 39.3934L113.611 39.422L112.928 39.4515V42.4495V45.4485L111.723 45.421L110.518 45.3934L110.492 42.418L110.466 39.4426H110.075H109.685L109.658 42.418L109.633 45.3934L108.045 45.42L106.459 45.4475L105.242 44.5259L104.026 43.6033L104 41.521L103.973 39.4377L102.229 39.4652L100.485 39.4918L100.455 39.8606L100.424 40.2295H101.291H102.157L102.872 40.8974L103.588 41.5643L103.561 43.4793L103.534 45.3934L102.205 45.421L100.874 45.4475L99.6226 44.5928ZM101.338 42.7328L101.307 41.8908L100.895 41.9213L100.796 41.9282L100.662 41.9449L100.604 41.9557L100.536 41.998L100.508 42.0246L100.479 42.1161L100.454 42.3334L100.447 42.418L100.451 42.5498L100.457 42.6118L100.499 42.7239L100.527 42.781L100.622 42.9059L100.843 43.1449L100.901 43.2039L101.01 43.3111L101.064 43.3633L101.156 43.4479L101.199 43.4872L101.263 43.5403L101.317 43.5738H101.324L101.335 43.5079L101.34 43.4646L101.346 43.3269L101.348 43.2511L101.347 43.0593L101.346 42.959M107.046 42.0541L107.016 40.6328L106.603 40.3288L106.19 40.0249L106.162 41.3813L106.134 42.7377L106.555 43.1036L106.613 43.1538L106.723 43.2462L106.776 43.2895L106.868 43.3633L106.91 43.3967L106.974 43.4429L107.026 43.4724H107.029L107.035 43.4439L107.038 43.4252L107.043 43.3613L107.045 43.3259L107.049 43.2305L107.05 43.1793L107.052 43.0574L107.054 42.9285V42.6059L107.053 42.4357M104.764 35.5082V34.3279H105.944H107.125V35.5082V36.6885H105.944H104.764V35.5082ZM76.9938 36.4259L76.9888 36.422L76.98 36.3895L76.9761 36.3698L76.9682 36.3088L76.9603 36.242L76.9475 36.0384L76.9416 35.9262L76.9328 35.6538L76.9279 35.1964V34.0328H78.1082H79.2885V35.2623V36.4918H78.1741H78.0206L77.7354 36.4869L77.5987 36.4829L77.3675 36.4721L77.2603 36.4662L77.1069 36.4515L77.0744 36.4475L77.0292 36.4397L77.0105 36.4347L76.9938 36.4259Z" fill="#C39C6D"/>
</svg>
