<?xml version="1.0" encoding="UTF-8"?>
<svg id="Layer_2" data-name="Layer 2" xmlns="http://www.w3.org/2000/svg" xmlns:xlink="http://www.w3.org/1999/xlink" viewBox="0 0 980.68 341.76">
  <defs>
    <style>
      .cls-1 {
        fill: url(#linear-gradient);
      }

      .cls-1, .cls-2, .cls-3, .cls-4, .cls-5, .cls-6, .cls-7 {
        stroke-width: 0px;
      }

      .cls-2 {
        fill: #30302f;
      }

      .cls-3 {
        fill: #3e6e8e;
      }

      .cls-4 {
        fill: url(#linear-gradient-5);
      }

      .cls-5 {
        fill: url(#linear-gradient-2);
      }

      .cls-6 {
        fill: url(#linear-gradient-3);
      }

      .cls-7 {
        fill: url(#linear-gradient-4);
      }
    </style>
    <linearGradient id="linear-gradient" x1="0" y1="136.07" x2="131.26" y2="136.07" gradientUnits="userSpaceOnUse">
      <stop offset="0" stop-color="#5799ca"/>
      <stop offset="1" stop-color="#3e6e8e"/>
    </linearGradient>
    <linearGradient id="linear-gradient-2" x1="64.92" y1="66.45" x2="337.23" y2="66.45" gradientUnits="userSpaceOnUse">
      <stop offset="0" stop-color="#5fa6da"/>
      <stop offset="1" stop-color="#64c9dc"/>
    </linearGradient>
    <linearGradient id="linear-gradient-3" x1="205.45" y1="204.65" x2="337.23" y2="204.65" gradientUnits="userSpaceOnUse">
      <stop offset="0" stop-color="#3e6e8e"/>
      <stop offset="1" stop-color="#5799ca"/>
    </linearGradient>
    <linearGradient id="linear-gradient-4" x1="27.96" y1="275.11" x2="271.77" y2="275.11" gradientUnits="userSpaceOnUse">
      <stop offset="0" stop-color="#3e6e8e"/>
      <stop offset=".37" stop-color="#4c91ac"/>
      <stop offset="1" stop-color="#64c9dc"/>
    </linearGradient>
    <linearGradient id="linear-gradient-5" x1="27.96" y1="275.11" x2="271.77" y2="275.11" xlink:href="#linear-gradient-2"/>
  </defs>
  <g id="Layer_1-2" data-name="Layer 1">
    <g>
      <g>
        <path class="cls-1" d="M27.61,272.13L0,215.4C90.53,136.07,64.92,27.63,64.92,27.63L122.97,0s49.93,167.56-95.36,272.13Z"/>
        <g>
          <path class="cls-5" d="M64.92,27.63L122.97,0c79.85,93.33,186.8,67.53,186.8,67.53l27.46,57.19S162.82,174.68,64.92,27.63Z"/>
          <path class="cls-6" d="M309.77,67.53l27.46,57.19c-91.33,82.02-65.46,188.43-65.46,188.43l-57.15,28.61s-52.82-169.9,95.15-274.23Z"/>
        </g>
        <g>
          <path class="cls-7" d="M91.18,208.48c-.28-.03-.24,0-.52-.03-15.36,22.46-35.6,44.37-62.69,63.86l.77-.19s.6-.14,1.75-.36c14.29-2.72,108.81-14.79,184.14,70l57.15-28.61c-54.74-75.34-123.88-99.13-180.59-104.67Z"/>
          <path class="cls-4" d="M91.18,208.48c-.28-.03-.24,0-.52-.03-15.36,22.46-35.6,44.37-62.69,63.86l.77-.19s.6-.14,1.75-.36c14.29-2.72,108.81-14.79,184.14,70l57.15-28.61c-54.74-75.34-123.88-99.13-180.59-104.67Z"/>
        </g>
      </g>
      <g>
        <polygon class="cls-2" points="350.93 67.53 378.76 67.53 416.26 185.44 454.35 66.84 482.33 66.84 436.94 208.21 395.87 208.21 350.93 67.53"/>
        <polygon class="cls-2" points="497.94 67.53 525.77 67.53 563.27 185.44 601.37 66.84 629.34 66.84 583.96 208.21 542.88 208.21 497.94 67.53"/>
        <path class="cls-2" d="M726.36,66.83h-80.78v141.38h81.33c22.82,0,41.32-18.5,41.32-41.32v-58.19c0-23.12-18.75-41.87-41.87-41.87ZM742.54,162.72c0,13.08-10.6,23.68-23.68,23.68h-46.6v-96.26h46.6c13.08,0,23.68,10.6,23.68,23.68v48.89Z"/>
        <polygon class="cls-2" points="790.58 208.22 816.81 208.22 816.81 90.15 876.65 208.22 921.71 208.22 921.71 66.84 894.77 66.84 895.72 185.33 835.4 66.84 790.58 66.84 790.58 208.22"/>
        <g>
          <path class="cls-3" d="M367.69,246.1v33.11h-4.45v-33.11h-12.57v-3.99h29.47v3.99h-12.45Z"/>
          <path class="cls-3" d="M406.73,245.87v12.53h19.81v3.52h-19.81v13.67h20.7v3.63h-24.94v-37.1h24.94v3.75h-20.7Z"/>
          <path class="cls-3" d="M476.26,266.62h4.32c0,.38.03.96.09,1.73.06.77.09,1.35.09,1.73,0,5.58-2.88,8.63-8.65,9.14-2.09.12-4.16.18-6.21.18h-5.45c-2.76-.2-4.9-.85-6.42-1.96-1.52-1.11-2.58-2.53-3.18-4.26-.6-1.73-.94-3.8-1.04-6.23-.09-2.42-.17-4.51-.22-6.25v-5.88c0-2.47.28-4.57.84-6.3.56-1.73,1.58-3.12,3.04-4.18,1.46-1.06,3.49-1.72,6.08-1.97,1.61-.21,4.13-.31,7.57-.31,2.74,0,4.9.15,6.47.44,1.58.3,2.82.84,3.73,1.64.91.8,1.58,1.95,2,3.45.42,1.5.72,3.57.88,6.21h-4.34c0-2.12-.15-3.72-.44-4.82-.29-1.1-.93-1.92-1.92-2.47-.99-.55-2.5-.82-4.55-.82-2.44,0-5.17.1-8.2.29-1.86.15-3.26.55-4.21,1.22-.94.66-1.57,1.58-1.87,2.73-.3,1.16-.46,2.72-.46,4.7v8.54c0,5.05.51,8.46,1.53,10.22.92,1.58,3.5,2.36,7.73,2.36.31,0,.87.02,1.69.06.82.04,1.46.06,1.94.06,2.64,0,4.83-.35,6.55-1.04,1.73-.69,2.63-2.04,2.71-4.04,0-.48-.02-1.19-.06-2.13s-.06-1.62-.06-2.05Z"/>
          <path class="cls-3" d="M534.44,242.11v37.1h-4.45v-17.18h-22.73v17.18h-4.33v-37.1h4.33v16.34h22.73v-16.34h4.45Z"/>
          <path class="cls-3" d="M590.51,242.11v37.1h-7.12l-21.84-33.53v33.53h-4.25v-37.1h7.05l21.91,33.9v-33.9h4.25Z"/>
          <path class="cls-3" d="M612.8,261.31v-2.19c0-3.11.09-5.63.29-7.54.19-1.92.68-3.62,1.46-5.12.78-1.5,2.04-2.67,3.79-3.51,1.75-.84,4.14-1.26,7.18-1.26h1.83c3,0,5.43.13,7.3.39,1.87.26,3.45.8,4.74,1.61,1.29.81,2.26,2.06,2.92,3.75s.99,3.95.99,6.78c0,5.81-.03,10.23-.08,13.25-.06,2.32-.32,4.23-.78,5.75-.46,1.52-1.19,2.75-2.19,3.7-1,.95-2.33,1.64-3.98,2.08-1.66.43-3.72.65-6.18.65-.36,0-.89-.02-1.6-.07-.7-.04-1.29-.07-1.77-.07-2.37,0-4.35-.14-5.96-.43-1.61-.29-2.97-.81-4.08-1.57-1.12-.76-1.99-1.87-2.61-3.31-.62-1.44-1-3.32-1.12-5.64-.09-1.66-.14-4.07-.14-7.26ZM617.31,261.12v5.94c.06,2.48.33,4.35.81,5.59.48,1.25,1.36,2.12,2.64,2.62,1.28.5,3.22.75,5.81.75s4.49-.08,5.89-.23c1.41-.15,2.57-.52,3.5-1.12.93-.59,1.62-1.52,2.08-2.79s.72-3.02.78-5.25c.08-2.7.12-6.77.12-12.22,0-2.95-.35-5.06-1.05-6.33-.7-1.28-1.78-2.06-3.22-2.36-1.44-.3-3.79-.45-7.03-.45h-1.52c-2.42,0-4.22.21-5.4.62-1.18.41-2.03,1.25-2.54,2.51-.51,1.26-.79,3.25-.84,5.95l-.06,6.77Z"/>
          <path class="cls-3" d="M670.47,242.11v33.23h19.69v3.87h-24.39v-37.1h4.7Z"/>
          <path class="cls-3" d="M712.31,261.31v-2.19c0-3.11.09-5.63.29-7.54.19-1.92.68-3.62,1.46-5.12.78-1.5,2.04-2.67,3.79-3.51,1.75-.84,4.14-1.26,7.18-1.26h1.83c3,0,5.43.13,7.3.39,1.87.26,3.45.8,4.74,1.61,1.29.81,2.26,2.06,2.92,3.75s.99,3.95.99,6.78c0,5.81-.03,10.23-.08,13.25-.06,2.32-.32,4.23-.78,5.75-.46,1.52-1.19,2.75-2.19,3.7-1,.95-2.33,1.64-3.98,2.08-1.66.43-3.72.65-6.18.65-.36,0-.89-.02-1.6-.07-.7-.04-1.29-.07-1.77-.07-2.37,0-4.35-.14-5.96-.43-1.61-.29-2.97-.81-4.08-1.57-1.12-.76-1.99-1.87-2.61-3.31-.62-1.44-1-3.32-1.12-5.64-.09-1.66-.14-4.07-.14-7.26ZM716.82,261.12v5.94c.06,2.48.33,4.35.81,5.59.48,1.25,1.36,2.12,2.64,2.62,1.28.5,3.22.75,5.81.75s4.49-.08,5.89-.23c1.41-.15,2.57-.52,3.5-1.12.93-.59,1.62-1.52,2.08-2.79s.72-3.02.78-5.25c.08-2.7.12-6.77.12-12.22,0-2.95-.35-5.06-1.05-6.33-.7-1.28-1.78-2.06-3.22-2.36-1.44-.3-3.79-.45-7.03-.45h-1.52c-2.42,0-4.22.21-5.4.62-1.18.41-2.03,1.25-2.54,2.51-.51,1.26-.79,3.25-.84,5.95l-.06,6.77Z"/>
          <path class="cls-3" d="M780.76,260.76h16.64c.08.93.12,2.28.12,4.05v2.66c0,3.45-.52,6.18-1.54,8.21-1.03,2.02-3.19,3.2-6.47,3.54-2.89.2-5.56.3-8,.3-4.33,0-7.62-.37-9.87-1.11s-3.86-2.09-4.81-4.06c-.96-1.97-1.43-4.86-1.43-8.7,0-1.15.01-2.85.03-5.1.02-2.25.03-3.94.03-5.07,0-3.29.41-5.92,1.24-7.89.83-1.97,2.22-3.41,4.17-4.31s4.63-1.35,8.04-1.35c4.15,0,7.29.04,9.41.12,3.2.09,5.51.93,6.94,2.52,1.43,1.59,2.14,3.94,2.14,7.04v1.33h-4.26c0-2.52-.36-4.34-1.08-5.46s-2.29-1.72-4.7-1.79c-1.82-.08-4.52-.12-8.12-.12-2.82,0-4.85.24-6.1.73-1.25.49-2.07,1.4-2.48,2.73-.41,1.33-.64,3.55-.69,6.64l-.12,4.89.12,5.21c0,1.9.1,3.46.3,4.69.2,1.23.71,2.3,1.53,3.21.82.92,2.09,1.51,3.8,1.77,1.39.21,3.49.31,6.29.31h2.28c2.58,0,4.49-.2,5.72-.59,1.23-.39,2.08-1.15,2.54-2.27.46-1.12.69-2.87.69-5.24v-3.2h-12.38v-3.69Z"/>
          <path class="cls-3" d="M824.33,242.11v37.1h-4.39v-37.1h4.39Z"/>
          <path class="cls-3" d="M850.75,245.87v12.53h19.81v3.52h-19.81v13.67h20.7v3.63h-24.95v-37.1h24.95v3.75h-20.7Z"/>
          <path class="cls-3" d="M922.06,252.35h-4.26c-.11-1.91-.38-3.34-.79-4.3-.41-.95-1.12-1.63-2.12-2.01s-2.5-.58-4.51-.58h-2.23c-4,0-6.64.38-7.93,1.15-1.39.82-2.09,2.53-2.09,5.14,0,1.47.15,2.64.44,3.51.29.87.86,1.55,1.7,2.04s2.05.78,3.63.88c.27.02,2.18.09,5.72.21,3.54.12,6.13.41,7.76.87s2.94,1.41,3.94,2.83c1,1.42,1.5,3.53,1.5,6.32,0,2.16-.19,3.96-.56,5.41-.37,1.45-1.13,2.65-2.27,3.59-1.14.94-2.82,1.51-5.05,1.71-2.12.2-4.6.3-7.44.3-2.36,0-4.32-.1-5.9-.3-1.58-.2-2.98-.63-4.21-1.29-1.22-.66-2.17-1.67-2.84-3.03-.67-1.36-1.01-3.15-1.01-5.37,0-.21,0-.5.03-.87.02-.37.03-.67.03-.87h4.2c0,2.34.2,4.06.61,5.17.41,1.1,1.19,1.87,2.35,2.3,1.16.43,2.96.64,5.41.64h3.62c2.34,0,4.11-.15,5.28-.44,1.18-.29,2.03-.92,2.56-1.9s.79-2.52.79-4.63c0-1.72-.15-3.01-.46-3.87-.3-.86-.89-1.47-1.74-1.84-.86-.36-2.15-.58-3.89-.64-2.45-.1-4.84-.21-7.19-.32s-4.34-.45-6-.99c-1.65-.54-2.97-1.54-3.95-2.99-.98-1.45-1.47-3.52-1.47-6.21,0-2.83.53-4.96,1.58-6.41,1.05-1.45,2.53-2.41,4.42-2.87,1.89-.47,4.34-.7,7.35-.7h1.01c2.41,0,4.4.09,5.98.26,1.58.17,2.97.57,4.18,1.19s2.15,1.6,2.81,2.95,1,3.15,1,5.41v.61Z"/>
        </g>
        <path class="cls-2" d="M980.68,69.51c0,14.81-11.63,26.44-26.76,26.44s-26.92-11.63-26.92-26.44,11.95-26.12,26.92-26.12,26.76,11.63,26.76,26.12ZM933.69,69.51c0,11.63,8.6,20.87,20.39,20.87s19.91-9.24,19.91-20.71-8.44-21.03-20.07-21.03-20.23,9.4-20.23,20.87ZM949.78,83.21h-6.05v-26.13c2.39-.48,5.74-.8,10.04-.8,4.94,0,7.17.8,9.08,1.91,1.43,1.11,2.55,3.19,2.55,5.73,0,2.87-2.23,5.1-5.42,6.05v.32c2.55.96,3.98,2.87,4.78,6.37.8,3.98,1.27,5.58,1.91,6.53h-6.53c-.8-.96-1.27-3.35-2.07-6.37-.48-2.87-2.07-4.14-5.42-4.14h-2.87v10.51ZM949.94,68.39h2.87c3.35,0,6.05-1.12,6.05-3.82,0-2.39-1.75-3.98-5.58-3.98-1.59,0-2.71.16-3.35.32v7.49Z"/>
      </g>
    </g>
  </g>
</svg>